<?xml version="1.0" standalone="no"?>
<!DOCTYPE svg PUBLIC "-//W3C//DTD SVG 20010904//EN"
 "http://www.w3.org/TR/2001/REC-SVG-20010904/DTD/svg10.dtd">
<svg version="1.0" xmlns="http://www.w3.org/2000/svg"
 width="990.000000pt" height="990.000000pt" viewBox="0 0 990.000000 990.000000"
 preserveAspectRatio="xMidYMid meet">

<g transform="translate(0.000000,990.000000) scale(0.100000,-0.100000)"
fill="#000000" stroke="none">
<path d="M7207 8693 c-4 -3 -7 -13 -7 -22 0 -9 -7 -29 -15 -45 -9 -16 -13 -31
-10 -34 5 -5 26 40 39 86 7 22 5 28 -7 15z"/>
<path d="M7026 8605 c-41 -41 -70 -75 -66 -75 4 0 13 7 20 15 7 8 17 15 22 15
8 0 48 42 90 95 37 47 8 25 -66 -50z"/>
<path d="M6862 8613 c-36 -37 -89 -76 -132 -98 -19 -10 -49 -34 -67 -54 -17
-20 -35 -32 -40 -27 -4 5 -2 11 5 13 6 3 12 9 12 15 0 5 -14 -1 -31 -14 -62
-46 -69 -50 -69 -40 0 5 20 38 43 73 48 71 70 109 63 109 -3 0 -29 -35 -58
-77 -28 -43 -57 -84 -64 -91 -7 -6 -16 -21 -19 -32 -3 -11 -10 -20 -14 -20
-14 0 -190 -163 -221 -205 -14 -19 -14 -19 5 -5 11 8 37 29 57 47 20 17 52 39
70 49 27 13 19 2 -40 -58 -40 -41 -80 -88 -88 -104 -9 -16 -26 -40 -38 -54
-13 -14 -30 -36 -40 -50 -9 -13 -48 -57 -86 -96 -39 -40 -70 -78 -70 -85 0 -7
14 0 30 16 34 32 40 23 10 -15 -11 -14 -20 -29 -20 -33 0 -4 -11 -20 -25 -35
-43 -46 -27 -49 19 -3 28 27 52 65 67 103 13 33 45 86 72 117 26 31 53 63 60
71 6 8 25 32 41 55 45 62 127 155 137 155 16 0 10 -16 -21 -50 -16 -18 -30
-38 -30 -44 0 -6 7 -2 15 8 8 11 26 33 41 49 19 22 23 31 14 37 -9 6 0 21 31
54 54 56 75 61 25 6 -20 -22 -36 -42 -36 -45 0 -3 11 -4 25 -2 28 3 87 56 116
102 10 17 19 23 19 16 0 -12 3 -12 12 -3 26 26 27 10 4 -33 -14 -25 -24 -45
-21 -45 10 0 48 48 67 85 11 22 32 50 47 62 14 12 20 22 14 23 -7 0 -13 5 -13
11 0 6 7 9 15 5 8 -3 14 0 12 6 -3 15 52 33 65 20 6 -6 -8 -28 -41 -63 -28
-30 -51 -58 -51 -63 0 -9 26 14 204 180 76 71 96 104 42 69 -14 -9 -29 -14
-34 -11 -10 6 -62 -47 -62 -64 0 -19 -34 -7 -38 14 -2 10 9 31 24 47 35 37 23
38 -14 2z m-32 -68 c-7 -8 -17 -15 -23 -15 -6 0 -2 7 9 15 25 19 30 19 14 0z"/>
<path d="M7105 8591 c-33 -31 -42 -43 -66 -81 -9 -14 -48 -59 -88 -100 -39
-41 -71 -80 -71 -86 0 -6 -26 -37 -57 -69 -35 -35 -53 -60 -45 -62 6 -3 9 -10
5 -16 -3 -7 3 -4 14 6 11 9 24 17 30 17 18 0 55 48 48 61 -5 7 -4 10 2 6 12
-8 34 20 117 143 32 47 63 90 70 95 11 10 79 115 73 115 -1 0 -16 -13 -32 -29z"/>
<path d="M6290 8480 c-6 -11 -22 -23 -36 -26 -13 -4 -40 -20 -58 -38 -19 -17
-53 -47 -77 -66 -23 -19 -67 -61 -98 -92 -30 -32 -62 -58 -70 -58 -9 0 1 11
22 25 32 23 48 45 31 45 -9 0 -86 -56 -120 -87 -67 -62 -229 -279 -292 -393
-40 -72 -37 -78 6 -12 17 26 42 59 56 74 15 15 26 32 26 38 0 5 5 10 10 10 6
0 10 7 10 15 0 9 7 18 15 21 8 3 17 14 20 25 4 10 12 19 18 19 7 0 25 14 40
32 16 18 26 26 22 18 -3 -8 4 -3 17 12 35 40 199 178 212 178 7 0 31 18 55 40
23 22 47 40 53 40 5 0 7 9 3 19 -6 19 15 46 78 99 33 26 34 27 34 5 0 -21 -54
-82 -82 -94 -18 -7 -18 -8 -2 -8 10 -1 15 -5 12 -11 -12 -19 7 -10 27 13 19
21 19 20 -1 -14 -12 -20 -21 -44 -21 -53 0 -34 22 -14 51 47 17 34 41 82 54
107 12 25 19 49 15 54 -5 5 -6 15 -3 22 8 22 -15 16 -27 -6z m-150 -167 c-8
-3 -22 -11 -30 -17 -13 -10 -13 -9 -1 7 7 9 21 17 30 16 13 0 14 -1 1 -6z"/>
<path d="M7189 8442 c-14 -15 -28 -34 -32 -42 -4 -8 -13 -24 -20 -35 -7 -11
-25 -42 -41 -70 -17 -27 -42 -67 -58 -87 -16 -20 -27 -40 -26 -45 4 -13 -29
-68 -56 -94 -14 -13 -26 -28 -26 -34 0 -5 4 -3 10 5 5 8 11 12 15 9 3 -3 -26
-61 -65 -127 -68 -118 -78 -142 -62 -142 9 0 48 71 44 82 -1 4 1 7 5 7 19 -3
27 2 16 9 -9 6 5 39 53 120 37 62 68 111 71 109 7 -8 -24 -74 -63 -135 -50
-75 -53 -83 -27 -52 13 14 23 28 23 33 0 4 5 7 11 7 5 0 7 -5 3 -11 -3 -6 -1
-15 6 -19 15 -9 5 -30 -13 -26 -7 1 -9 1 -4 -1 4 -3 7 -10 7 -15 0 -6 -3 -9
-6 -5 -14 13 -90 -106 -114 -178 -7 -20 -23 -48 -36 -62 -28 -30 -30 -39 -10
-46 9 -4 33 12 58 36 24 23 57 53 73 67 64 55 143 172 195 290 26 60 79 140
91 140 5 0 13 9 19 20 18 34 -7 24 -58 -24 -26 -25 -48 -53 -49 -64 -3 -42
-129 -263 -178 -313 -26 -27 -53 -49 -58 -49 -6 0 -3 8 6 18 10 10 17 23 17
29 0 5 9 18 20 28 11 10 20 24 20 32 0 8 15 34 33 58 17 25 46 65 62 91 17 25
40 61 53 80 23 35 19 43 -9 21 -23 -17 -69 -87 -69 -104 0 -8 -9 -26 -19 -39
l-20 -25 3 25 c1 15 6 29 9 33 4 3 7 13 7 22 0 9 11 39 24 66 14 28 33 69 42
93 10 23 21 42 26 42 4 0 8 6 8 14 0 28 48 157 76 203 29 48 46 83 40 83 -1 0
-14 -12 -27 -28z m-132 -272 c-6 -16 -15 -30 -19 -30 -12 0 -10 8 8 35 22 33
25 31 11 -5z m-141 -370 c-35 -54 -41 -51 -9 6 14 25 28 43 31 40 3 -3 -7 -24
-22 -46z"/>
<path d="M7082 8356 c-12 -18 -22 -35 -22 -39 0 -10 -53 -90 -65 -99 -5 -4 -6
-10 -2 -14 10 -10 28 16 77 105 43 79 49 101 12 47z"/>
<path d="M6787 8330 c-19 -22 -22 -35 -7 -25 10 6 34 45 28 45 -2 0 -11 -9
-21 -20z"/>
<path d="M6159 8253 c-10 -73 3 -106 22 -55 6 17 5 22 -7 22 -11 0 -13 6 -9
20 3 11 4 20 1 20 -3 0 -6 -3 -7 -7z"/>
<path d="M6605 8243 c-33 -17 -65 -47 -65 -60 0 -5 -9 -15 -20 -23 -11 -8 -20
-20 -20 -28 0 -7 -5 -10 -12 -6 -7 4 -8 3 -4 -4 6 -11 -5 -41 -25 -66 -5 -6
-20 -25 -34 -42 -14 -18 -25 -35 -25 -39 0 -4 -8 -14 -17 -21 -10 -7 -15 -15
-12 -19 4 -3 29 22 56 57 49 63 62 81 108 150 14 21 48 56 76 78 52 41 49 52
-6 23z"/>
<path d="M6687 8173 c-35 -48 -55 -83 -52 -94 3 -9 -1 -22 -10 -29 -18 -15
-20 1 -3 18 7 7 8 12 2 12 -6 0 -23 -18 -40 -41 -16 -22 -34 -46 -39 -52 -34
-40 -89 -110 -113 -144 -27 -41 -84 -113 -112 -143 -9 -9 -46 -54 -84 -100
-83 -105 -79 -100 -167 -187 -108 -105 -157 -157 -245 -263 -85 -103 -104
-125 -147 -173 -43 -48 -70 -87 -59 -87 5 0 25 19 43 42 54 67 88 107 174 203
44 50 94 107 110 127 17 21 33 38 37 38 10 0 -26 -58 -58 -95 -14 -16 -38 -46
-53 -65 -14 -19 -33 -42 -41 -50 -30 -32 -95 -113 -110 -136 -8 -13 -20 -24
-27 -24 -7 0 -12 -3 -11 -7 2 -5 -1 -9 -5 -10 -10 -3 -37 -30 -37 -38 0 -3 5
-3 12 1 7 4 8 3 4 -5 -4 -6 -11 -9 -15 -6 -12 6 -36 -23 -58 -70 -10 -22 -23
-40 -30 -40 -6 0 -15 -4 -20 -9 -5 -5 -3 -6 5 -2 20 12 14 -3 -23 -51 -77
-100 -14 -52 81 63 23 28 90 115 150 195 59 79 110 146 114 149 3 3 21 25 40
50 19 25 37 47 40 50 4 3 41 48 84 100 43 52 82 96 87 98 4 2 5 10 2 18 -5 13
7 18 35 15 6 -1 12 2 12 6 0 4 15 24 33 44 110 121 181 208 175 215 -3 2 -25
-21 -49 -51 -24 -30 -48 -55 -53 -55 -10 0 -7 4 87 118 38 46 72 81 75 78 3
-4 -4 -16 -15 -29 -11 -12 -23 -29 -27 -37 -4 -8 6 1 23 20 17 19 29 40 27 46
-7 17 24 55 37 48 7 -4 9 -4 6 0 -4 4 11 26 33 49 55 59 208 263 208 279 0 7
9 24 20 38 20 25 26 50 13 50 -5 0 -34 -35 -66 -77z m-427 -592 c0 -4 -27 -37
-61 -72 -67 -72 -67 -60 1 24 43 54 60 67 60 48z"/>
<path d="M6088 8151 c-7 -10 -32 -40 -56 -67 -63 -73 -64 -75 -59 -80 2 -2 22
17 43 43 21 27 47 57 57 68 21 22 40 55 33 55 -3 0 -11 -8 -18 -19z"/>
<path d="M6171 8132 c-7 -17 -19 -33 -27 -36 -18 -7 -18 -26 0 -26 15 0 50 64
44 82 -2 6 -10 -3 -17 -20z"/>
<path d="M5562 8085 c-31 -30 -51 -55 -45 -55 6 0 16 7 23 15 7 8 16 13 20 10
8 -5 70 62 70 76 0 17 -12 9 -68 -46z"/>
<path d="M6346 8112 l-19 -27 24 22 c12 12 21 24 18 27 -2 2 -13 -8 -23 -22z"/>
<path d="M6194 8090 c-16 -23 -33 -39 -40 -36 -8 3 -11 0 -7 -10 3 -8 0 -21
-7 -29 -7 -9 -10 -18 -7 -22 3 -3 -1 -19 -9 -35 -23 -45 3 -23 29 24 48 87 54
98 71 122 9 14 12 26 6 26 -5 0 -22 -18 -36 -40z"/>
<path d="M5491 8079 c-1 -8 -14 -25 -31 -37 -30 -23 -56 -29 -45 -12 3 6 4 10
2 10 -2 0 -44 -58 -92 -130 -48 -71 -91 -130 -96 -130 -4 0 -24 -24 -42 -52
-19 -29 -44 -62 -56 -72 -12 -11 -17 -22 -12 -26 9 -5 -18 -130 -34 -163 -4
-7 2 -1 13 12 19 24 45 106 47 151 0 14 6 24 12 23 6 -1 16 11 23 27 14 33 40
60 40 41 0 -25 18 -8 40 39 13 27 32 58 42 67 10 9 26 31 34 49 19 39 89 118
79 89 -4 -11 -9 -27 -12 -35 -3 -8 6 -3 21 12 14 15 26 32 26 38 0 5 5 10 10
10 6 0 9 4 8 9 -2 5 12 23 30 40 34 33 41 46 18 38 -8 -3 -17 -1 -20 6 -2 7
-5 6 -5 -4z"/>
<path d="M5642 8013 c-43 -43 -87 -94 -97 -113 -15 -30 -11 -28 31 20 26 30
74 81 106 113 32 31 54 57 49 57 -5 0 -45 -35 -89 -77z"/>
<path d="M5898 8053 c-23 -28 -33 -50 -12 -28 10 11 25 26 33 33 8 6 10 12 4
12 -5 0 -17 -8 -25 -17z"/>
<path d="M6882 8036 c-38 -41 -43 -60 -6 -25 23 22 50 59 42 59 -2 0 -18 -15
-36 -34z"/>
<path d="M5947 8053 c-4 -3 -7 -11 -7 -17 0 -6 5 -5 12 2 6 6 9 14 7 17 -3 3
-9 2 -12 -2z"/>
<path d="M5700 8008 c-17 -22 -28 -44 -25 -47 7 -6 55 44 55 59 0 5 5 10 10
10 6 0 10 5 10 10 0 22 -21 8 -50 -32z"/>
<path d="M6334 8017 c-77 -88 -239 -348 -258 -417 -4 -14 14 13 39 59 26 46
62 105 81 132 19 27 34 51 34 54 0 7 79 114 98 134 21 22 45 61 40 66 -3 3
-18 -10 -34 -28z"/>
<path d="M5539 8013 c-13 -16 -12 -17 4 -4 9 7 17 15 17 17 0 8 -8 3 -21 -13z"/>
<path d="M7112 7953 c-109 -218 -145 -273 -241 -368 -39 -38 -71 -77 -71 -86
0 -9 -7 -22 -15 -29 -8 -7 -15 -19 -15 -26 0 -8 26 10 57 40 32 30 59 53 60
52 8 -8 -57 -108 -105 -161 -104 -116 -124 -135 -136 -135 -15 0 -72 -58 -64
-65 3 -3 20 8 39 25 19 17 42 28 51 26 9 -2 25 5 35 16 10 11 34 31 53 43 37
24 79 62 120 110 16 19 8 14 -22 -13 -74 -65 -102 -51 -36 18 40 43 78 108 78
137 0 15 11 38 24 52 40 44 117 162 110 172 -3 5 2 12 10 15 9 3 16 13 16 21
0 8 23 62 51 120 28 57 48 107 46 110 -3 3 -23 -30 -45 -74z"/>
<path d="M5140 7956 c0 -14 5 -28 10 -31 6 -4 10 7 10 24 0 17 -4 31 -10 31
-5 0 -10 -11 -10 -24z"/>
<path d="M6755 7919 c-22 -26 -44 -48 -48 -48 -13 -1 -40 -31 -27 -31 13 0 98
78 111 103 19 34 5 25 -36 -24z"/>
<path d="M5916 7943 c-6 -14 -5 -15 5 -6 7 7 10 15 7 18 -3 3 -9 -2 -12 -12z"/>
<path d="M5480 7915 c-7 -9 -10 -18 -7 -21 3 -3 10 4 17 15 13 25 8 27 -10 6z"/>
<path d="M5086 7848 c-30 -64 -52 -101 -115 -197 -20 -29 -50 -79 -68 -109
-17 -31 -48 -73 -67 -94 -20 -20 -36 -40 -36 -43 0 -6 -4 -12 -55 -70 -43 -49
-45 -63 -5 -35 17 12 30 27 30 34 0 7 12 23 26 37 25 23 26 23 15 2 -15 -30
-14 -36 6 -29 15 6 15 4 -2 -14 -22 -24 -26 -25 -19 -5 13 34 -7 11 -37 -42
-18 -32 -38 -62 -44 -68 -23 -20 -161 -245 -151 -245 3 0 12 12 20 28 8 15 15
22 16 16 0 -18 30 -26 30 -8 0 8 -4 12 -10 9 -5 -3 -10 -2 -10 3 0 6 6 12 14
15 8 3 24 27 35 52 11 26 25 44 30 41 5 -4 13 4 16 16 10 32 76 150 81 145 6
-5 -20 -104 -37 -140 -7 -15 -10 -30 -6 -33 11 -12 25 6 31 41 4 20 36 108 72
197 62 151 98 218 162 296 15 19 27 45 28 58 1 13 15 47 33 75 17 28 31 54 31
58 0 4 9 16 19 25 18 16 19 46 2 46 -3 0 -19 -28 -35 -62z"/>
<path d="M5151 7869 c-1 -28 -12 -47 -56 -94 -30 -32 -53 -60 -50 -63 2 -3 11
0 19 7 8 7 16 8 18 4 3 -4 3 -3 2 4 -2 6 13 26 33 44 41 36 87 99 73 99 -6 0
-10 -5 -10 -12 0 -17 -17 3 -23 27 -3 12 -5 5 -6 -16z"/>
<path d="M6776 7852 l-19 -27 24 22 c12 12 21 24 18 27 -2 2 -13 -8 -23 -22z"/>
<path d="M6630 7820 c-8 -5 -10 -10 -5 -10 6 0 17 5 25 10 8 5 11 10 5 10 -5
0 -17 -5 -25 -10z"/>
<path d="M5447 7807 c-11 -29 -9 -43 4 -30 6 6 9 19 7 29 -3 18 -4 18 -11 1z"/>
<path d="M6615 7754 l-40 -36 43 32 c36 27 49 40 40 40 -2 0 -21 -16 -43 -36z"/>
<path d="M5950 7725 c-7 -9 -11 -17 -9 -20 3 -2 10 5 17 15 14 24 10 26 -8 5z"/>
<path d="M6697 7704 c-10 -14 -17 -30 -14 -37 2 -7 12 3 21 21 21 41 18 49 -7
16z"/>
<path d="M5890 7664 c0 -32 -4 -75 -10 -93 -7 -24 -6 -39 1 -48 8 -9 8 -21 0
-44 -6 -18 -11 -46 -11 -63 0 -17 -7 -44 -15 -60 -9 -16 -13 -31 -10 -34 6 -6
36 65 40 93 3 34 26 98 47 133 11 18 18 35 16 38 -3 2 -11 -7 -18 -21 -20 -37
-33 -31 -25 13 10 53 7 124 -5 136 -7 7 -10 -8 -10 -50z"/>
<path d="M6503 7678 c-18 -13 -33 -27 -33 -32 0 -5 12 1 28 15 15 13 31 27 37
31 20 17 -2 7 -32 -14z"/>
<path d="M5639 7623 c-13 -16 -12 -17 4 -4 9 7 17 15 17 17 0 8 -8 3 -21 -13z"/>
<path d="M5066 7598 c-3 -13 -12 -54 -20 -93 -19 -91 -22 -166 -8 -190 11 -20
11 -20 12 0 0 11 5 63 11 115 6 52 12 109 14 125 2 17 6 38 10 48 4 10 3 17
-4 17 -6 0 -13 -10 -15 -22z"/>
<path d="M6410 7610 c-9 -6 -10 -10 -3 -10 6 0 15 5 18 10 8 12 4 12 -15 0z"/>
<path d="M6575 7560 c-33 -33 -56 -60 -53 -60 11 0 123 109 117 114 -3 3 -32
-21 -64 -54z"/>
<path d="M6920 7465 c-7 -9 -11 -17 -9 -20 3 -2 10 5 17 15 14 24 10 26 -8 5z"/>
<path d="M4766 7438 c-16 -18 -64 -71 -107 -117 -44 -45 -79 -87 -79 -91 0 -5
-23 -46 -52 -92 -61 -99 -42 -88 31 18 29 41 60 83 69 92 10 10 43 49 73 87
31 39 64 76 73 84 21 18 40 51 29 51 -5 0 -21 -15 -37 -32z"/>
<path d="M4935 7394 c-22 -76 -13 -79 12 -4 11 33 16 60 12 60 -4 0 -15 -25
-24 -56z"/>
<path d="M5825 7386 c-23 -73 -14 -82 14 -14 13 30 18 55 12 61 -5 5 -16 -14
-26 -47z"/>
<path d="M4638 7349 c-23 -27 -45 -55 -47 -61 -2 -6 14 9 35 33 58 67 68 79
61 79 -3 0 -25 -23 -49 -51z"/>
<path d="M6889 7343 c-13 -16 -12 -17 4 -4 16 13 21 21 13 21 -2 0 -10 -8 -17
-17z"/>
<path d="M6320 7316 c-25 -18 -50 -35 -55 -37 -9 -4 -139 -81 -189 -112 -25
-15 -62 -47 -55 -47 16 0 105 50 179 100 47 31 100 66 118 76 17 10 32 22 32
26 0 4 6 8 14 8 8 0 18 5 21 10 13 21 -22 8 -65 -24z"/>
<path d="M5082 7300 c0 -14 2 -19 5 -12 2 6 2 18 0 25 -3 6 -5 1 -5 -13z"/>
<path d="M6820 7290 c-19 -17 -38 -30 -44 -30 -5 0 -24 -12 -43 -26 -19 -14
-41 -23 -49 -20 -8 3 -13 2 -10 -3 6 -9 -65 -62 -95 -71 -22 -7 -156 -128
-164 -148 -4 -12 1 -10 18 6 25 23 43 30 31 10 -5 -7 -3 -8 5 -4 7 5 10 10 8
12 -16 17 193 180 218 170 8 -3 33 13 57 35 24 21 46 39 49 39 4 0 22 13 40
30 19 16 30 30 24 29 -5 0 -26 -13 -45 -29z"/>
<path d="M5825 7300 c-3 -5 -1 -10 4 -10 6 0 11 5 11 10 0 6 -2 10 -4 10 -3 0
-8 -4 -11 -10z"/>
<path d="M4880 7256 c-15 -39 -12 -46 6 -13 9 16 13 31 10 34 -3 3 -10 -6 -16
-21z"/>
<path d="M6410 7250 c0 -5 -14 -25 -31 -45 -19 -21 -26 -35 -17 -35 7 0 25 20
40 45 15 25 23 45 18 45 -6 0 -10 -4 -10 -10z"/>
<path d="M4546 7214 c-5 -14 -4 -15 9 -4 17 14 19 20 6 20 -5 0 -12 -7 -15
-16z"/>
<path d="M4911 7214 c0 -11 3 -14 6 -6 3 7 2 16 -1 19 -3 4 -6 -2 -5 -13z"/>
<path d="M4517 7189 c7 -7 15 -10 18 -7 3 3 -2 9 -12 12 -14 6 -15 5 -6 -5z"/>
<path d="M4862 7180 c0 -14 2 -19 5 -12 2 6 2 18 0 25 -3 6 -5 1 -5 -13z"/>
<path d="M4902 7170 c0 -14 2 -19 5 -12 2 6 2 18 0 25 -3 6 -5 1 -5 -13z"/>
<path d="M6665 7150 c-16 -17 -23 -30 -16 -30 14 0 51 37 51 52 0 13 -4 10
-35 -22z"/>
<path d="M6330 7149 c0 -5 5 -7 10 -4 6 3 10 8 10 11 0 2 -4 4 -10 4 -5 0 -10
-5 -10 -11z"/>
<path d="M4439 7095 c-33 -53 -57 -72 -45 -37 3 9 -2 6 -12 -8 -9 -13 -29 -38
-43 -55 -32 -37 -102 -172 -96 -188 2 -6 14 11 27 39 13 27 29 54 34 60 6 6
20 27 31 47 11 20 26 36 33 34 8 -1 30 21 48 48 19 28 39 56 44 63 6 6 8 12 4
12 -3 0 -1 7 6 15 7 9 11 18 8 20 -2 3 -20 -20 -39 -50z m-58 -82 c-12 -20
-14 -14 -5 12 4 9 9 14 11 11 3 -2 0 -13 -6 -23z"/>
<path d="M4851 7134 c0 -11 3 -14 6 -6 3 7 2 16 -1 19 -3 4 -6 -2 -5 -13z"/>
<path d="M6713 7085 c-33 -34 -106 -100 -162 -145 -55 -45 -101 -86 -101 -91
0 -5 -8 -9 -17 -9 -15 0 -16 -2 -3 -10 12 -8 12 -10 -3 -16 -10 -4 -23 -2 -29
4 -8 8 -1 22 25 52 21 22 37 47 37 55 0 9 21 38 46 65 51 55 48 66 -5 20 -19
-16 -38 -27 -42 -24 -10 6 -100 -89 -121 -129 -9 -18 -26 -42 -38 -55 -12 -13
-19 -26 -15 -30 4 -4 10 -1 12 5 4 11 16 25 90 106 47 51 36 18 -13 -40 -49
-58 -71 -78 -89 -83 -15 -4 -68 -80 -61 -87 3 -4 21 7 39 24 17 17 50 42 72
55 43 26 126 60 132 54 2 -2 -12 -21 -32 -42 -20 -21 -41 -48 -47 -59 -16 -30
60 45 82 81 19 29 70 63 70 45 0 -12 -106 -126 -150 -161 -30 -24 -38 -27 -34
-13 4 11 -5 7 -25 -14 -34 -35 -111 -91 -151 -110 l-25 -11 26 -1 c22 -1 133
62 177 100 7 6 16 9 18 6 3 -3 -20 -23 -50 -45 -31 -21 -53 -42 -49 -45 13
-14 67 29 162 131 123 132 155 173 140 183 -7 4 -6 8 3 11 24 10 33 7 31 -10
-2 -9 3 -6 9 8 7 14 23 34 35 45 23 21 31 45 14 45 -5 0 -17 -7 -25 -16 -9 -8
-20 -13 -26 -9 -5 3 -30 -5 -55 -19 -40 -23 -44 -23 -33 -6 7 11 17 20 23 20
6 0 16 9 23 20 7 11 20 20 30 20 22 0 182 174 170 185 -2 2 -31 -25 -65 -60z
m-338 -274 c-3 -6 -11 -11 -17 -11 -6 0 -6 6 2 15 14 17 26 13 15 -4z"/>
<path d="M5736 7109 c-11 -10 -15 -19 -9 -19 5 0 18 9 28 20 23 26 6 25 -19
-1z"/>
<path d="M5957 7095 c-20 -14 -37 -30 -37 -35 0 -5 -9 -12 -20 -15 -11 -3 -20
-11 -20 -16 0 -11 35 12 90 60 43 37 37 40 -13 6z"/>
<path d="M6259 7073 c-19 -22 -24 -29 -9 -18 40 32 53 46 48 50 -2 3 -20 -12
-39 -32z"/>
<path d="M6586 7085 c-11 -8 -17 -17 -14 -20 2 -3 15 4 28 15 26 23 15 27 -14
5z"/>
<path d="M5608 6963 c-141 -172 -141 -172 -134 -148 7 23 -34 -20 -93 -100
-52 -69 -65 -95 -53 -107 11 -11 52 41 52 67 0 9 4 14 9 11 8 -5 36 26 140
158 14 17 39 47 55 67 17 20 38 44 46 55 8 10 32 40 54 67 21 26 34 47 30 47
-5 0 -53 -53 -106 -117z m-173 -223 c-21 -28 -40 -49 -43 -46 -2 3 13 28 34
55 21 28 40 49 42 46 2 -2 -12 -27 -33 -55z m-85 -111 c-7 -11 -14 -18 -17
-15 -3 3 0 12 7 21 18 21 23 19 10 -6z"/>
<path d="M4497 7011 c-9 -16 -17 -35 -17 -42 0 -8 9 4 21 25 24 45 21 59 -4
17z"/>
<path d="M4605 6970 c3 -5 8 -10 11 -10 2 0 4 5 4 10 0 6 -5 10 -11 10 -5 0
-7 -4 -4 -10z"/>
<path d="M6690 6960 c0 -5 7 -7 15 -4 8 4 15 8 15 10 0 2 -7 4 -15 4 -8 0 -15
-4 -15 -10z"/>
<path d="M4576 6904 c-4 -20 -5 -38 -2 -41 2 -3 8 11 12 31 3 21 4 39 1 42 -2
3 -8 -11 -11 -32z"/>
<path d="M6130 6920 c-8 -5 -12 -11 -10 -14 3 -2 14 2 24 10 22 15 10 19 -14
4z"/>
<path d="M4441 6869 c-6 -18 -9 -34 -7 -36 2 -2 9 10 15 28 6 18 9 34 7 36 -2
2 -9 -10 -15 -28z"/>
<path d="M6090 6890 c-9 -6 -10 -10 -3 -10 6 0 15 5 18 10 8 12 4 12 -15 0z"/>
<path d="M5583 6868 c-23 -30 -24 -41 -2 -21 12 12 20 25 17 28 -3 3 -10 0
-15 -7z"/>
<path d="M4546 6799 c-9 -29 -14 -55 -11 -57 2 -3 7 1 9 9 22 67 27 91 23 96
-3 3 -13 -19 -21 -48z"/>
<path d="M6015 6801 c-22 -16 -65 -44 -95 -62 -30 -19 -64 -40 -75 -47 -11 -7
-45 -24 -75 -38 -30 -14 -139 -68 -243 -119 -176 -89 -186 -92 -172 -65 8 16
19 31 24 35 6 3 20 20 32 38 16 23 8 18 -27 -18 -27 -27 -58 -61 -69 -76 -32
-42 -124 -111 -138 -103 -6 4 -9 4 -6 1 5 -7 -113 -136 -119 -131 -4 3 29 49
113 161 83 110 106 145 103 155 -5 15 -95 -102 -228 -297 -68 -99 -144 -206
-169 -238 -25 -32 -61 -80 -79 -105 -18 -26 -38 -54 -45 -62 -38 -47 -57 -80
-46 -80 8 0 7 -5 -3 -17 -42 -48 -205 -302 -188 -293 11 6 20 18 20 26 0 8 5
12 10 9 6 -3 10 -1 10 6 0 11 17 33 101 132 20 23 46 60 57 82 11 22 39 61 62
87 23 26 39 52 36 57 -4 5 -1 13 5 17 8 5 9 3 4 -7 -5 -8 1 -5 13 5 27 24 27
26 1 19 -18 -5 -18 -3 6 23 15 16 31 28 36 27 4 -2 6 4 3 12 -3 7 9 34 28 58
18 25 39 53 46 63 11 18 12 17 7 -3 -4 -13 -2 -23 4 -23 6 0 11 5 11 11 0 16
64 117 97 156 16 17 36 42 46 56 10 13 38 39 64 57 l46 33 -29 -49 c-16 -27
-49 -76 -75 -110 -25 -34 -62 -85 -82 -115 -20 -30 -50 -70 -67 -89 -16 -19
-30 -40 -30 -46 0 -7 -7 -14 -15 -18 -8 -3 -15 -10 -15 -16 0 -6 -5 -16 -10
-23 -27 -31 -99 -133 -100 -139 0 -9 -131 -194 -229 -323 -42 -56 -80 -109
-86 -119 -5 -10 -14 -17 -20 -16 -15 2 -6 31 21 63 14 16 22 32 18 36 -4 3 -9
0 -11 -7 -3 -7 -15 -25 -27 -40 -35 -43 -57 -82 -47 -82 5 0 12 8 15 17 5 12
10 13 18 5 8 -8 3 -21 -19 -49 -16 -21 -51 -72 -79 -113 -27 -41 -52 -76 -56
-78 -5 -2 -8 -7 -8 -12 0 -9 -80 -130 -86 -130 -2 0 10 23 26 50 17 28 30 53
30 56 0 3 9 18 20 34 11 15 17 30 13 34 -3 3 -1 6 5 6 7 0 12 4 12 8 0 10 -30
9 -48 -2 -15 -9 -15 -4 0 29 6 14 15 25 20 25 5 0 16 17 25 38 25 60 137 227
119 178 -6 -16 -4 -17 9 -6 12 10 13 15 4 21 -9 5 -3 22 21 61 19 29 42 62 52
74 10 11 15 24 11 27 -3 4 -2 7 3 7 11 0 48 59 42 66 -3 2 -21 -20 -42 -49
-130 -181 -166 -235 -190 -283 -15 -29 -32 -56 -37 -60 -12 -7 19 75 36 96 7
8 31 47 54 85 23 39 49 81 59 94 16 23 16 24 -4 13 -11 -6 -26 -22 -34 -36
-10 -20 -16 -23 -27 -15 -10 9 -13 8 -13 -5 0 -37 -96 -189 -113 -179 -6 3 -7
1 -3 -5 6 -10 -35 -88 -78 -147 -12 -16 -35 -55 -50 -85 -15 -30 -35 -62 -43
-70 -14 -13 -15 -13 -7 0 7 13 5 13 -8 2 -9 -8 -14 -20 -11 -28 4 -10 0 -12
-11 -8 -9 3 -16 1 -16 -5 0 -6 -4 -11 -9 -11 -5 0 -12 24 -16 53 -3 28 -13 75
-21 104 -10 38 -12 64 -5 93 7 34 7 39 -4 30 -15 -12 -18 -3 -45 120 -7 30
-19 75 -26 100 -7 25 -18 89 -25 143 -7 53 -16 97 -20 97 -12 0 -3 -58 47
-308 l45 -222 -17 -58 c-35 -119 -42 -137 -53 -134 -6 1 -10 -1 -10 -5 1 -5 1
-19 0 -32 -1 -20 -4 -22 -13 -13 -7 7 -13 40 -13 77 0 45 -4 64 -11 61 -7 -3
-26 23 -43 57 -16 34 -46 86 -66 115 -19 30 -35 57 -35 60 0 4 -10 18 -21 32
-11 14 0 -13 24 -60 24 -47 59 -114 77 -150 49 -95 50 -98 50 -117 0 -30 -40
-193 -71 -288 -35 -109 -37 -138 -5 -69 27 58 76 222 76 254 0 12 5 18 10 15
33 -20 -34 -335 -71 -335 -4 0 -10 -11 -13 -25 -17 -67 -266 -448 -266 -406 0
12 6 34 14 49 7 15 17 38 21 52 7 24 7 24 -9 5 -15 -19 -15 -18 -10 15 3 19 7
43 9 53 2 9 -1 15 -6 11 -12 -7 -11 27 1 46 7 11 10 11 10 2 0 -32 18 3 28 55
24 125 24 162 2 190 -12 16 -20 41 -20 64 0 22 -4 39 -9 39 -12 0 -37 155 -33
203 2 21 -1 37 -7 37 -6 0 -11 19 -12 43 0 23 -5 65 -9 92 -6 34 -7 -1 -5
-108 2 -87 8 -163 13 -170 5 -7 17 -52 26 -102 10 -49 22 -100 28 -111 13 -27
6 -159 -11 -198 -11 -28 -12 -28 -25 -10 -8 10 -16 28 -19 39 -4 11 -4 7 -1
-10 5 -29 5 -81 1 -215 -1 -39 -9 -79 -20 -99 -12 -24 -14 -37 -6 -41 12 -8
-79 -159 -96 -159 -6 -1 -37 -53 -70 -116 -62 -121 -104 -182 -105 -154 0 9
-7 22 -15 29 -14 11 -14 10 -5 -14 13 -35 13 -66 0 -66 -5 0 -10 8 -10 19 0
10 -10 33 -23 52 -30 44 -67 125 -67 144 0 9 -6 26 -14 38 -23 37 -49 178 -48
262 1 68 51 339 69 368 9 15 21 6 36 -30 l16 -38 -6 40 c-3 22 -10 44 -17 49
-8 6 -9 34 -3 105 8 93 4 192 -9 239 -5 17 -2 22 12 22 12 0 15 3 8 8 -27 17
-47 78 -46 135 1 32 -3 57 -8 57 -6 0 -10 5 -10 11 0 5 4 8 9 4 5 -3 13 5 16
16 11 34 20 8 34 -96 15 -104 32 -163 67 -222 18 -31 24 -57 24 -100 1 -45 3
-54 11 -40 15 25 -8 156 -31 182 -22 25 -34 61 -24 77 14 22 13 57 0 52 -19
-7 -26 25 -35 172 -7 106 -6 142 6 185 9 30 17 66 20 82 3 15 8 27 12 27 3 0
7 16 9 36 1 19 15 54 31 77 31 46 101 188 101 205 0 6 4 13 8 16 9 6 -7 -62
-27 -108 -6 -16 -9 -32 -5 -35 8 -8 34 29 34 48 0 9 5 23 11 31 7 11 8 1 3
-35 -7 -52 3 -59 13 -9 22 112 31 147 32 131 2 -40 19 -4 18 39 -2 34 2 48 16
55 12 7 17 22 16 52 l-1 42 -11 -32 c-15 -40 -32 -57 -23 -23 3 14 9 45 13 70
3 25 10 53 15 63 6 12 4 24 -7 39 -15 22 -15 21 -15 -17 0 -60 -29 -186 -50
-223 -11 -18 -34 -67 -52 -109 -17 -42 -46 -93 -63 -112 -18 -20 -38 -53 -44
-73 -7 -20 -34 -71 -61 -112 -28 -41 -61 -103 -74 -138 -14 -35 -25 -56 -26
-48 -1 8 -8 -3 -17 -25 -17 -45 -45 -156 -41 -161 2 -1 14 24 28 57 26 62 46
79 36 32 -16 -83 -18 -106 -9 -100 14 9 39 -81 27 -93 -6 -6 -3 -56 8 -132 29
-193 28 -315 -2 -268 -8 12 -10 11 -10 -6 0 -11 5 -25 11 -31 9 -9 7 -24 -4
-60 -27 -82 -67 -260 -67 -300 0 -39 -14 -72 -22 -57 -3 5 -16 40 -28 78 -19
58 -22 80 -15 140 10 108 12 121 21 157 4 19 7 38 6 42 -2 5 3 24 10 43 8 23
9 40 3 52 -6 10 -8 63 -4 127 3 61 6 100 7 88 1 -12 5 -29 8 -38 5 -13 8 -14
15 -3 6 9 9 4 9 -15 0 -15 9 -47 20 -69 11 -23 20 -51 20 -63 0 -12 7 -30 15
-41 13 -17 14 -11 10 56 -8 138 -17 210 -26 210 -6 0 -8 -38 -4 -92 l5 -93
-15 60 c-9 33 -18 98 -22 143 -3 53 -9 79 -14 70 -5 -7 -9 -24 -10 -38 -1 -24
-1 -23 -10 5 -5 17 -7 47 -4 69 5 34 4 38 -12 31 -34 -13 -38 -10 -41 25 -4
42 -19 61 -28 36 -4 -10 -2 -22 5 -29 12 -12 14 -146 2 -187 l-7 -25 -8 24
c-5 13 -7 55 -5 95 3 89 1 141 -7 134 -3 -3 -7 -30 -9 -59 -6 -66 -30 -150
-37 -129 -14 39 -38 123 -38 133 0 14 -51 80 -57 74 -2 -3 3 -19 11 -35 17
-32 23 -147 12 -212 -3 -19 -8 -87 -11 -150 -5 -122 -22 -318 -30 -360 -7 -33
20 -100 40 -100 8 0 15 -6 15 -13 0 -17 23 -67 31 -67 6 0 6 24 -1 80 -2 24
-3 24 -10 -5 -4 -16 -8 -22 -9 -13 0 10 -10 22 -21 28 -17 9 -20 21 -19 73 0
43 3 56 9 42 6 -14 8 -1 7 40 0 59 18 175 23 145 4 -17 8 -116 10 -205 0 -47
3 -56 11 -42 12 21 5 225 -11 322 -11 65 -2 311 11 298 22 -23 40 -383 24
-489 -3 -24 -2 -45 4 -48 14 -9 21 20 22 104 1 41 5 80 10 85 9 12 15 86 8
100 -3 6 -2 30 1 55 5 45 5 45 21 22 19 -26 32 -16 27 21 -1 12 2 23 7 25 25
7 30 -194 6 -288 -12 -49 -33 -206 -34 -255 0 -17 7 -46 16 -64 9 -19 17 -42
17 -51 0 -9 3 -20 7 -24 12 -11 32 -76 63 -200 17 -65 30 -121 30 -123 0 -2 5
-1 10 2 11 7 33 -42 27 -59 -3 -6 -10 1 -16 17 -10 26 -21 33 -33 21 -3 -3 0
-17 7 -32 15 -31 18 -47 15 -82 -1 -17 -9 -2 -24 45 -29 92 -48 135 -58 129
-4 -3 -8 0 -8 5 0 6 -9 20 -20 31 -22 22 -39 28 -22 8 19 -24 102 -185 102
-199 0 -8 6 -26 14 -41 16 -29 13 -121 -5 -203 -6 -27 -9 -61 -7 -75 7 -47 40
121 42 217 1 51 5 95 8 99 7 7 27 -26 43 -71 6 -17 10 -57 9 -89 -2 -49 -11
-78 -50 -158 -27 -54 -53 -97 -59 -95 -5 2 -27 -35 -47 -82 -21 -47 -44 -98
-51 -113 -14 -32 -26 -36 -28 -10 -4 56 -6 70 -14 102 -7 30 -9 32 -16 15 -7
-19 -8 -19 -8 3 -1 12 4 30 10 40 9 14 8 25 -4 48 -8 16 -18 44 -22 62 -4 18
-14 36 -22 39 -9 3 -13 14 -10 25 6 20 -20 127 -35 143 -13 14 -9 -15 7 -63 9
-24 13 -48 9 -53 -3 -5 3 -37 14 -72 23 -73 39 -148 48 -232 4 -33 8 -73 10
-90 2 -16 -2 -42 -7 -57 -10 -23 -13 -25 -25 -14 -7 8 -15 29 -16 48 -2 18 -6
35 -10 39 -13 9 -25 94 -17 116 4 11 3 26 -2 34 -6 10 -9 6 -10 -16 -1 -24 -2
-26 -8 -10 -11 34 -50 103 -63 111 -8 5 -9 2 -4 -12 48 -118 26 -111 -99 31
-87 100 -120 152 -162 255 -12 30 -22 48 -22 40 -2 -30 -21 13 -20 45 1 29 1
29 9 5 l8 -25 1 25 c0 14 -6 37 -13 52 -8 15 -11 30 -6 33 4 3 2 31 -5 62 -7
31 -11 82 -8 112 3 45 2 52 -7 38 -8 -13 -10 -57 -6 -145 3 -70 6 -136 6 -147
1 -37 32 -128 63 -184 46 -86 77 -121 263 -297 37 -36 64 -86 64 -121 0 -8 -5
-11 -10 -8 -6 4 -13 -8 -17 -25 -4 -20 -9 -27 -13 -19 -5 7 -6 18 -3 24 4 13
-22 45 -38 45 -5 0 -8 -6 -6 -12 3 -16 -34 -11 -46 5 -5 7 -5 2 -2 -11 6 -22
3 -21 -72 17 -43 21 -87 48 -99 59 -11 10 -47 38 -80 60 -32 22 -71 53 -86 69
-32 34 -88 138 -88 164 0 10 -4 19 -10 19 -14 0 -12 -22 3 -45 7 -11 22 -42
32 -70 12 -35 38 -71 86 -119 38 -38 67 -72 64 -75 -2 -4 22 -20 53 -36 52
-26 111 -80 100 -91 -6 -5 -124 74 -172 115 -46 39 -129 123 -144 146 l-13 20
7 -20 c3 -11 10 -33 14 -50 4 -16 8 -24 9 -17 1 8 41 -26 90 -74 49 -48 99
-88 110 -89 11 -1 29 -9 38 -17 10 -9 32 -23 49 -32 24 -11 36 -28 48 -63 21
-61 20 -72 -4 -66 -27 7 -70 52 -70 73 0 10 -7 23 -15 30 -14 11 -14 10 -6
-14 6 -14 7 -26 2 -26 -11 0 -170 169 -198 212 -15 20 -23 27 -23 16 0 -17
123 -180 141 -186 5 -2 9 -9 9 -17 0 -7 7 -18 15 -25 17 -14 47 -71 41 -78
-13 -12 -195 197 -196 225 0 4 -8 18 -18 30 -12 16 -23 21 -39 17 -26 -7 -31
-24 -8 -24 9 0 12 -6 8 -16 -4 -10 1 -17 15 -21 12 -3 30 -20 41 -38 44 -75
124 -166 159 -181 76 -31 104 -77 117 -189 2 -16 7 -41 11 -53 6 -22 5 -23
-15 -11 -11 8 -21 19 -21 25 0 15 -37 46 -92 77 -61 35 -74 35 -22 -1 96 -65
123 -101 53 -72 -50 21 -162 122 -115 104 32 -12 15 6 -24 26 -23 12 -50 35
-60 53 -11 18 -20 28 -20 22 0 -5 -7 -1 -15 9 -13 17 -15 18 -15 3 0 -9 9 -22
20 -29 11 -7 20 -20 20 -29 0 -9 11 -24 25 -33 14 -9 54 -42 89 -74 44 -40 82
-64 129 -82 l67 -24 1 -46 1 -45 18 50 c10 28 19 41 19 31 1 -10 7 -24 15 -30
12 -9 10 -21 -13 -81 -16 -38 -33 -71 -39 -73 -5 -1 -7 -13 -4 -24 4 -17 2
-20 -12 -15 -13 5 -16 2 -15 -16 4 -47 -2 -75 -21 -97 -11 -13 -21 -37 -21
-54 l-1 -31 -8 30 c-8 29 -9 29 -7 -7 1 -20 -2 -40 -6 -44 -4 -4 -7 -17 -7
-29 0 -11 -9 -37 -19 -58 -10 -20 -22 -49 -26 -64 -3 -16 -16 -48 -27 -73 -28
-61 -29 -63 -91 -245 -59 -170 -69 -201 -116 -365 -45 -155 -55 -194 -53 -202
1 -5 -1 -8 -5 -8 -5 0 -9 -10 -9 -22 -1 -13 -9 -54 -17 -93 -22 -102 -27 -145
-16 -145 5 0 9 -9 9 -20 0 -27 16 -25 24 2 3 13 29 60 58 104 74 114 92 146
94 170 3 24 61 125 78 136 8 6 7 8 -1 8 -24 0 -13 17 25 36 101 51 102 53 137
221 13 62 27 122 30 134 5 15 4 19 -5 14 -16 -10 -4 117 15 160 8 17 26 75 40
130 40 148 67 225 81 225 6 0 15 17 18 38 8 43 35 121 49 139 5 7 6 17 2 22
-7 12 32 107 40 99 3 -3 0 -18 -7 -32 -10 -23 -9 -29 3 -38 11 -8 11 -9 -3 -4
-10 3 -20 1 -23 -4 -4 -6 1 -10 9 -10 9 0 16 -6 16 -14 0 -26 -43 -116 -55
-116 -7 0 -15 -15 -18 -32 -11 -65 -35 -135 -61 -172 -27 -40 -34 -62 -16 -51
15 9 12 -6 -9 -61 -10 -27 -29 -83 -41 -124 -33 -115 -33 -116 -22 -105 6 6
27 57 46 115 55 167 82 231 91 223 4 -5 5 -2 1 5 -10 17 3 52 19 52 8 0 17 9
20 20 3 11 10 20 15 20 5 0 7 6 4 13 -5 13 9 29 61 72 47 39 55 29 10 -12 -22
-20 -29 -29 -15 -20 92 63 123 75 169 71 25 -3 76 -6 112 -8 36 -1 71 -6 77
-10 8 -5 10 -2 6 9 -12 31 60 -14 84 -53 13 -20 20 -28 17 -17 -4 11 -9 39
-10 62 -4 49 4 52 62 28 19 -8 47 -15 60 -15 15 0 39 -14 60 -35 41 -41 47
-43 37 -12 l-6 22 25 -24 c14 -13 28 -33 30 -45 3 -20 4 -20 12 -2 5 12 3 26
-5 39 -7 11 -16 33 -20 47 l-8 27 147 22 c80 12 156 29 168 37 12 7 30 11 40
8 13 -4 14 -3 5 4 -10 7 -7 13 12 25 14 10 28 17 31 17 3 0 15 9 27 20 25 23
19 36 -10 21 -32 -17 -172 -10 -172 9 0 5 30 11 68 15 37 4 76 8 87 10 74 11
101 19 110 29 6 6 26 21 46 33 37 21 49 30 126 96 24 20 48 37 54 37 5 0 9 5
9 10 0 6 -7 10 -17 10 -14 0 -14 2 2 20 10 11 33 29 53 40 27 16 33 17 29 5
-12 -30 22 -15 50 23 27 36 35 45 61 76 26 31 62 89 62 99 0 6 -19 -7 -42 -30
-41 -39 -87 -63 -89 -46 -9 87 -2 103 51 103 6 0 10 11 10 24 0 14 5 28 11 32
6 3 8 15 6 25 -7 25 19 42 111 72 39 13 75 26 78 30 12 12 -27 20 -49 10 -12
-5 -33 -6 -47 -3 -17 5 -20 9 -10 12 64 22 89 28 106 28 10 0 26 5 34 11 11 8
-5 9 -55 4 -38 -4 -94 -9 -122 -10 l-53 -4 28 26 c15 14 41 32 57 40 17 9 37
21 45 28 8 7 62 37 120 66 96 48 111 53 176 53 60 1 68 3 56 15 -10 11 -33 13
-97 8 -46 -3 -93 -11 -104 -16 -12 -6 -30 -15 -41 -21 -33 -17 -44 -11 -19 10
13 10 19 19 13 20 -10 0 -48 -27 -106 -75 -37 -31 -68 -46 -78 -40 -6 4 -9 1
-8 -6 2 -6 -3 -14 -9 -16 -23 -8 -14 21 15 48 29 27 147 99 163 99 5 0 9 4 9
8 0 5 18 17 39 27 39 17 101 21 174 11 28 -4 37 -2 37 9 0 12 -16 15 -72 17
-126 2 -202 0 -222 -8 -14 -5 -17 -4 -12 4 4 7 14 12 22 12 8 0 14 4 14 9 0 5
10 13 22 17 23 7 78 62 78 77 0 5 -10 1 -22 -7 -52 -36 -36 -11 40 66 45 45
82 87 82 94 0 17 96 101 139 124 20 10 47 27 60 39 13 12 29 21 35 21 6 0 22
9 36 20 l25 20 -25 0 c-24 1 -24 1 -6 15 20 15 20 15 -1 15 -11 0 -34 -5 -52
-11 -18 -6 -34 -9 -37 -6 -3 3 36 46 86 95 75 74 88 92 75 99 -14 8 -12 13 12
38 26 27 16 27 -17 0 -8 -7 -22 -12 -30 -12 -8 0 -32 -4 -52 -8 -21 -4 -38 -5
-38 -2 0 3 27 22 60 43 33 22 60 43 60 47 0 4 12 19 27 33 14 13 24 26 22 29
-3 2 -27 -2 -54 -10 -87 -27 -123 -15 -68 21 15 9 34 25 43 35 8 10 38 24 65
32 34 10 50 20 49 30 -1 9 10 20 26 25 31 11 48 52 22 52 -11 0 -5 9 17 27 70
57 113 109 157 189 40 73 134 257 134 262 0 2 -7 2 -15 -1 -8 -4 -17 -2 -21 4
-3 6 -13 8 -23 5 -9 -4 1 10 22 29 20 19 37 41 37 49 0 7 18 31 40 52 22 22
38 44 37 49 -8 24 60 138 78 131 9 -3 11 3 8 17 -3 13 -1 17 4 11 5 -8 38 32
93 113 47 69 90 133 96 144 13 23 44 47 108 83 41 24 46 30 32 38 -11 6 -24 4
-44 -10 -55 -39 -227 -83 -194 -50 17 17 15 31 -4 24 -9 -3 -12 -2 -9 4 4 6
12 9 18 8 18 -4 60 27 135 98 36 35 70 64 75 64 14 0 97 84 97 98 0 6 5 12 11
12 5 0 7 -4 4 -10 -3 -6 1 -7 10 -3 11 4 13 8 5 13 -23 14 36 109 116 187 30
28 54 55 54 60 0 4 -12 -4 -25 -19 -13 -16 -29 -28 -36 -28 -6 0 -21 -10 -33
-23 -20 -22 -90 -67 -104 -67 -11 0 72 79 83 80 6 0 19 15 29 33 l19 32 -24
-22 c-71 -66 -131 -113 -140 -108 -5 4 5 18 22 33 18 14 45 44 60 66 16 21 29
33 29 26 0 -14 14 -5 16 11 1 5 2 11 3 14 0 3 11 1 22 -6 13 -7 19 -7 15 -1
-4 6 12 30 34 54 22 24 40 39 40 33 0 -18 47 59 54 90 4 16 22 50 40 75 34 47
48 75 52 100 4 31 33 86 56 106 25 23 51 53 86 103 23 31 23 32 3 21 -12 -6
-21 -14 -21 -19 0 -9 -77 -91 -86 -91 -3 0 1 11 10 25 9 14 23 36 32 50 9 14
14 29 10 33 -4 4 -12 -1 -17 -11 -28 -49 -182 -217 -199 -217 -5 0 -10 -6 -10
-12 0 -7 -26 -34 -58 -60 -31 -26 -70 -58 -85 -72 -16 -13 -38 -31 -50 -40
-16 -11 -18 -15 -6 -15 8 -1 24 7 35 17 22 19 101 79 134 102 13 8 36 29 52
45 20 20 27 23 20 10 -18 -36 -192 -194 -295 -268 -32 -23 -53 -43 -46 -46 6
-2 14 1 18 6 6 11 65 43 77 43 17 0 -45 -53 -107 -93 -37 -23 -72 -50 -79 -60
-10 -17 -9 -17 12 -6 13 7 25 15 28 18 6 8 79 51 86 51 3 0 2 -5 -1 -10 -10
-16 -125 -90 -140 -90 -7 0 -15 -7 -19 -15 -3 -8 -10 -15 -16 -15 -13 0 -122
-72 -116 -77 5 -6 56 19 56 27 0 4 8 10 18 13 9 4 35 18 57 32 22 13 46 28 53
31 19 9 29 -5 12 -16 -8 -6 -10 -10 -5 -10 20 0 36 17 30 32 -8 19 37 50 62
42 15 -5 16 -4 3 5 -12 9 -11 11 7 11 13 0 37 16 57 37 19 21 37 35 40 32 7
-7 -64 -93 -96 -115 -24 -16 -25 -19 -10 -32 15 -11 14 -12 -5 -3 -24 12 -51
2 -101 -41 -38 -32 -42 -47 -7 -24 81 52 81 52 65 32 -8 -11 -55 -55 -105
-100 -49 -44 -92 -84 -94 -89 -2 -5 21 7 50 27 30 20 60 36 67 36 8 0 12 6 9
14 -6 15 11 36 27 36 6 0 2 -7 -8 -15 -12 -9 -15 -15 -7 -15 7 0 57 29 110 65
54 36 100 65 104 65 14 0 -57 -77 -170 -182 -21 -21 -44 -38 -51 -38 -6 0 -17
-6 -24 -12 -41 -39 -109 -88 -125 -91 -10 -1 -39 -14 -63 -28 -25 -14 -57 -31
-72 -39 -16 -7 -28 -22 -28 -32 0 -15 3 -16 19 -7 10 7 27 9 37 5 16 -6 16 -9
4 -17 -11 -8 -8 -9 13 -5 31 7 33 4 12 -17 -13 -13 -7 -15 48 -11 34 3 72 6
85 8 l22 3 -23 -30 c-20 -26 -248 -175 -270 -176 -7 -1 43 64 96 123 9 11 17
24 17 29 0 15 -135 -126 -166 -173 -15 -23 -41 -48 -58 -57 -17 -9 -43 -29
-59 -44 -16 -16 -32 -29 -36 -29 -14 0 -4 75 10 76 8 1 20 2 28 3 11 1 11 4 0
17 -10 13 -10 17 0 24 17 10 5 30 -19 30 -20 0 -32 -22 -24 -45 4 -10 0 -15
-10 -15 -9 0 -19 7 -22 15 -4 8 -17 15 -31 15 -13 0 -31 6 -38 14 -11 11 -6
21 36 62 52 51 114 132 107 140 -3 2 -24 -18 -47 -46 -98 -116 -327 -288 -365
-274 -8 3 -23 -3 -35 -13 -35 -32 -50 -43 -59 -43 -18 0 -76 -34 -65 -37 6 -2
25 3 41 11 27 14 31 14 36 -1 7 -17 -4 -30 -89 -113 -28 -28 -42 -36 -51 -29
-8 7 -14 7 -19 -1 -3 -5 -1 -10 6 -10 7 0 4 -6 -6 -14 -11 -8 -24 -12 -29 -9
-5 4 -6 2 -3 -4 3 -5 -7 -17 -23 -26 -24 -15 -33 -16 -50 -5 -11 7 -20 16 -20
20 0 5 -5 8 -11 8 -6 0 -9 -6 -6 -14 3 -8 -3 -22 -13 -31 -10 -9 -16 -23 -14
-30 3 -7 -6 -15 -22 -19 -15 -4 -39 -16 -52 -27 -33 -26 -39 -25 -77 16 l-33
34 -49 -37 c-64 -48 -79 -61 -111 -96 -87 -94 -138 -157 -165 -199 -16 -26
-31 -46 -34 -43 -2 2 21 45 51 94 31 50 56 94 56 99 0 5 13 27 30 49 16 21 30
46 30 54 0 8 21 41 45 74 24 32 42 63 38 69 -4 6 -1 7 7 2 10 -6 12 -4 7 9 -4
11 -3 15 4 11 11 -7 49 22 49 37 0 5 5 14 10 21 6 7 27 36 48 64 82 116 128
172 140 172 6 1 12 6 12 13 0 6 7 19 16 29 21 23 9 45 -14 27 -19 -15 -2 14
54 95 19 26 34 51 34 55 0 4 13 23 28 42 16 19 41 53 55 75 63 97 150 221 161
230 18 14 96 126 96 138 0 12 71 115 140 202 58 74 123 160 157 209 20 29 63
58 133 92 147 71 282 134 286 134 2 0 21 10 42 23 20 13 51 29 69 35 52 17
274 173 246 172 -4 -1 -26 -13 -48 -29z m438 -238 c-3 -10 -14 -27 -23 -38 -9
-11 -32 -45 -51 -75 -18 -30 -38 -60 -44 -66 -5 -6 -25 -29 -44 -52 -18 -23
-37 -39 -41 -37 -5 3 -11 1 -15 -5 -3 -5 -11 -10 -16 -10 -5 0 -4 10 3 21 7
12 18 30 24 40 6 10 37 48 70 83 32 35 68 76 79 92 22 32 53 64 60 64 2 0 2
-8 -2 -17z m-263 -268 c-7 -9 -15 -13 -19 -10 -3 3 1 10 9 15 21 14 24 12 10
-5z m3 -37 c-10 -23 -103 -101 -102 -87 0 8 24 33 52 56 59 48 58 47 50 31z
m-478 -638 c-10 -11 -22 -17 -28 -13 -5 3 1 14 14 24 30 22 38 16 14 -11z m95
-157 c0 -17 -176 -120 -186 -110 -5 4 166 116 179 117 4 0 7 -3 7 -7z m-60
-76 c0 -7 -15 -28 -33 -47 -18 -19 -48 -56 -66 -82 -17 -27 -36 -48 -40 -48
-5 0 -14 -13 -21 -30 -7 -16 -22 -32 -34 -36 -23 -7 -121 -78 -147 -106 -15
-16 -18 -16 -29 -3 -10 12 -10 18 0 30 15 18 35 20 24 3 -5 -7 -3 -8 5 -4 7 5
10 14 7 22 -5 13 6 18 27 15 4 0 6 3 5 8 -2 5 12 23 31 40 27 24 31 31 16 31
-10 0 -27 -7 -37 -17 -20 -18 -39 -10 -20 9 7 7 8 17 1 30 -5 10 -6 18 -1 18
5 0 26 14 47 30 40 32 57 33 35 3 -8 -10 -1 -6 14 10 15 15 53 40 84 56 31 16
73 41 92 55 42 30 40 29 40 13z m-2672 -132 c-12 -39 -21 -82 -21 -97 0 -23
-2 -24 -14 -12 -11 11 -12 22 -3 56 19 74 46 135 56 126 1 -2 -7 -35 -18 -73z
m2102 9 c0 -3 -14 -29 -32 -57 -41 -65 -105 -124 -119 -110 -15 15 -74 -1
-108 -30 -17 -14 -28 -27 -26 -29 10 -10 13 -63 5 -79 -6 -9 -23 -20 -40 -24
-17 -4 -28 -10 -25 -14 5 -9 -42 -45 -72 -55 -12 -4 -27 -13 -33 -21 -7 -8
-21 -15 -32 -15 -11 0 -26 -7 -34 -15 -9 -8 -20 -15 -26 -15 -6 0 12 18 38 40
27 22 52 40 56 40 5 0 8 9 8 19 0 10 21 36 47 57 26 22 61 54 77 73 54 59 109
111 118 111 6 0 29 16 53 35 81 67 145 106 145 89z m-921 -116 c-5 -18 -26
-62 -48 -99 -29 -51 -36 -70 -27 -80 8 -9 7 -11 -5 -7 -10 4 -22 -7 -38 -38
-23 -42 -47 -62 -34 -27 5 12 3 14 -7 8 -15 -10 -12 -4 40 75 20 30 56 88 79
128 24 39 45 72 46 72 2 0 -1 -14 -6 -32z m866 -89 c-6 -16 -9 -18 -16 -8 -4
8 -3 19 3 26 15 18 21 9 13 -18z m-1152 -39 c2 -20 6 -40 9 -45 3 -6 5 -34 3
-64 -2 -34 0 -49 6 -40 7 11 9 11 9 -3 0 -10 -4 -18 -9 -18 -5 0 -14 -14 -21
-30 -7 -17 -16 -33 -21 -35 -8 -6 -3 65 8 100 3 11 7 32 8 48 4 48 -22 12 -30
-41 -4 -26 -15 -66 -26 -89 -10 -23 -19 -46 -19 -51 0 -4 -7 -17 -16 -28 -14
-18 -15 -16 -10 28 6 48 46 186 72 246 8 18 14 42 14 54 0 35 18 8 23 -32z
m297 29 c0 -4 -9 -7 -19 -6 -11 0 -18 4 -16 7 6 9 35 8 35 -1z m-24 -48 c-8
-15 -22 -34 -32 -42 -16 -13 -16 -12 0 19 9 18 15 36 12 40 -2 4 4 9 15 9 17
2 18 0 5 -26z m724 -55 c0 -2 -16 -20 -35 -39 -19 -19 -35 -38 -35 -41 0 -13
21 -5 44 19 31 31 46 32 46 4 0 -17 4 -20 23 -16 24 7 41 -1 45 -20 1 -7 -6
-13 -17 -13 -10 0 -24 -6 -30 -13 -20 -24 -85 -41 -110 -28 -18 10 -19 15 -10
33 8 15 8 22 0 28 -17 10 -4 32 37 62 40 29 42 30 42 24z m-778 -28 c-7 -7
-12 -8 -12 -2 0 6 3 14 7 17 3 4 9 5 12 2 2 -3 -1 -11 -7 -17z m-89 -65 c-4
-10 -13 -24 -20 -31 -7 -8 -10 -18 -7 -24 4 -7 2 -8 -4 -4 -13 8 -45 -47 -34
-59 4 -5 1 -5 -7 0 -10 5 -12 3 -7 -11 4 -12 -9 -50 -34 -99 -40 -82 -52 -97
-24 -30 8 20 13 39 11 41 -6 6 -57 -124 -57 -145 0 -22 -31 -81 -42 -81 -5 0
-8 15 -8 33 0 38 103 243 120 239 6 -1 9 2 5 8 -6 10 48 107 67 120 4 3 11 18
17 33 6 15 15 27 20 27 6 0 7 -8 4 -17z m302 -11 c6 -4 10 -13 9 -19 -1 -7 -2
-20 -3 -28 -1 -9 -7 -12 -17 -8 -10 4 -15 1 -14 -8 4 -29 -1 -39 -20 -39 -12
0 -17 -5 -14 -14 3 -9 -27 -35 -88 -76 -124 -83 -138 -99 -49 -54 73 37 121
50 121 33 0 -5 -5 -9 -11 -9 -6 0 -17 -7 -25 -15 -10 -9 -24 -13 -40 -9 -15 4
-24 2 -24 -6 0 -6 6 -8 13 -5 20 11 -33 -34 -149 -127 -60 -47 -129 -105 -153
-128 -23 -23 -45 -39 -48 -36 -7 7 109 178 124 183 7 3 9 -4 6 -16 -8 -29 11
-26 25 4 43 94 172 250 240 290 18 11 32 25 32 32 0 7 11 15 25 19 14 4 24 9
21 12 -6 6 13 32 23 32 3 0 11 -4 16 -8z m416 -39 c-6 -36 -8 -38 -45 -38 -30
0 -41 -5 -46 -20 -4 -12 -3 -23 4 -28 7 -5 0 -17 -22 -35 -39 -33 -41 -44 -4
-40 23 3 27 -1 30 -23 2 -15 -3 -33 -11 -40 -14 -14 -17 -22 -17 -39 0 -10
-91 -60 -111 -60 -6 0 -22 -9 -36 -20 -14 -11 -33 -20 -43 -20 -23 0 -66 -46
-48 -53 7 -2 21 0 32 5 13 7 21 6 27 -3 9 -15 -87 -111 -136 -136 -16 -9 -32
-19 -35 -23 -9 -14 -183 -125 -280 -180 -52 -29 -114 -66 -137 -81 -23 -16
-44 -29 -48 -29 -15 0 -195 -127 -290 -204 -57 -46 -93 -70 -84 -56 8 14 42
68 74 120 33 52 63 97 67 100 3 3 19 34 34 70 16 36 31 67 34 70 3 3 13 17 23
33 10 15 23 27 31 27 7 0 21 17 30 39 20 44 56 83 149 161 36 30 69 62 72 70
3 8 29 31 56 50 28 19 56 40 62 45 7 6 26 19 42 29 28 18 29 18 15 1 -8 -10
-46 -43 -83 -73 -88 -69 -131 -117 -223 -244 -72 -99 -73 -101 -23 -48 29 30
71 80 94 112 42 56 125 138 170 167 33 22 146 108 170 130 11 10 29 23 40 28
23 12 85 5 85 -9 0 -6 9 -7 23 -3 39 13 92 11 98 -4 4 -10 19 -2 56 30 54 46
62 59 38 59 -8 0 -15 -4 -15 -10 0 -5 -9 -10 -20 -10 -24 0 -26 25 -3 38 16 9
16 12 -1 37 -12 18 -13 25 -4 24 28 -6 66 12 72 33 5 23 66 63 115 78 14 5 26
9 27 9 0 1 -2 -16 -5 -36z m-1874 -35 c-3 -7 -5 -2 -5 12 0 14 2 19 5 13 2 -7
2 -19 0 -25z m-103 -4 c3 -8 2 -12 -4 -9 -6 3 -10 10 -10 16 0 14 7 11 14 -7z
m2316 -8 c0 -3 -4 -8 -10 -11 -5 -3 -10 -1 -10 4 0 6 5 11 10 11 6 0 10 -2 10
-4z m-1289 -152 c-17 -32 -30 -51 -31 -42 0 16 52 109 58 103 1 -1 -11 -29
-27 -61z m-814 34 c-3 -8 -6 -5 -6 6 -1 11 2 17 5 13 3 -3 4 -12 1 -19z m758
-135 c-21 -51 -100 -193 -120 -218 -16 -19 100 218 118 243 17 22 18 13 2 -25z
m832 -49 c-3 -3 -12 -4 -19 -1 -8 3 -5 6 6 6 11 1 17 -2 13 -5z m-866 -82
c-12 -17 -21 -35 -21 -42 0 -15 -41 -73 -47 -66 -2 2 1 15 7 28 19 38 74 117
78 113 2 -2 -5 -17 -17 -33z m50 -63 c-28 -59 -60 -117 -135 -245 -81 -139
-178 -276 -188 -266 -8 8 -6 16 6 27 9 9 16 20 16 25 0 5 23 39 50 75 28 36
50 71 50 78 0 7 25 54 55 106 43 72 53 97 43 103 -10 7 -9 9 2 5 17 -4 104
128 94 144 -3 6 2 20 13 31 18 20 18 20 21 0 2 -11 -11 -49 -27 -83z m795 -35
c-11 -8 -32 -14 -47 -14 -15 0 -31 -4 -34 -10 -3 -5 -12 -10 -18 -10 -17 1 50
60 68 60 9 0 12 6 8 17 -5 13 -1 12 18 -6 23 -22 24 -23 5 -37z m36 34 c-11
-11 -32 -3 -32 12 0 4 9 6 21 3 13 -4 17 -9 11 -15z m-828 -65 c-19 -44 -46
-82 -58 -83 -5 0 -2 8 6 18 9 9 25 36 37 60 26 52 36 55 15 5z m-224 -67 c-32
-56 -47 -73 -56 -63 -7 6 11 38 51 93 41 56 43 38 5 -30z m998 44 c-7 -11 -26
-24 -43 -31 -16 -6 -38 -15 -47 -20 -10 -5 -26 -9 -36 -9 -10 0 -22 -3 -25 -6
-4 -4 -30 -15 -59 -25 l-53 -17 28 24 c15 13 40 26 55 30 15 3 41 13 57 22 66
36 101 51 118 52 15 0 15 -3 5 -20z m-203 -20 c-18 -20 -35 -26 -35 -12 0 4
10 12 23 18 32 16 32 16 12 -6z m-695 -27 c0 -5 -20 -37 -45 -72 -53 -76 -57
-74 -14 6 41 76 39 73 50 73 5 0 9 -3 9 -7z m915 -13 c-3 -5 -15 -10 -26 -10
-10 0 -19 5 -19 10 0 6 12 10 26 10 14 0 23 -4 19 -10z m-131 -45 c-10 -8 -28
-14 -39 -14 -20 0 -20 0 -1 14 11 8 29 15 40 15 20 0 20 0 0 -15z m443 9 c-3
-3 -12 -4 -19 -1 -8 3 -5 6 6 6 11 1 17 -2 13 -5z m-657 -8 c0 -3 -4 -8 -10
-11 -5 -3 -10 -1 -10 4 0 6 5 11 10 11 6 0 10 -2 10 -4z m388 -14 c-6 -7 -19
-10 -30 -6 -25 8 -55 -15 -36 -28 10 -8 10 -11 1 -15 -7 -2 -13 -11 -13 -19 0
-8 -7 -14 -16 -14 -14 0 -14 3 -4 15 9 11 9 15 1 15 -18 0 -26 -31 -10 -41 8
-5 30 -7 49 -4 19 2 26 2 15 -2 -11 -3 -22 -8 -25 -12 -12 -15 -75 -30 -84
-21 -7 7 -6 10 3 10 8 0 11 6 7 17 -4 9 -2 19 3 23 15 9 1 50 -18 51 -13 0
-14 2 -1 6 8 3 17 9 20 13 13 18 50 28 97 27 40 -2 49 -5 41 -15z m55 11 c-7
-2 -19 -2 -25 0 -7 3 -2 5 12 5 14 0 19 -2 13 -5z m-1195 -95 c-43 -71 -83
-103 -71 -59 3 12 11 21 18 21 8 0 16 9 20 19 8 28 65 104 72 97 3 -3 -14 -38
-39 -78z m712 75 c0 -11 -59 -43 -78 -43 -9 1 -3 7 14 14 18 8 35 19 38 25 8
12 26 15 26 4z m210 -3 c12 -8 12 -10 -5 -10 -11 0 -27 5 -35 10 -12 8 -12 10
5 10 11 0 27 -5 35 -10z m-732 -51 c-13 -24 -24 -46 -25 -48 -2 -2 -6 -2 -9 2
-5 5 17 52 40 85 19 27 15 3 -6 -39z m1272 39 c-14 -5 -32 -14 -40 -19 -36
-22 -83 -40 -98 -37 -29 7 89 68 128 67 34 0 34 -1 10 -11z m-606 -15 c-10
-10 -27 -23 -38 -28 -25 -13 -33 -45 -14 -56 8 -5 14 -18 13 -30 -1 -16 -14
-27 -51 -41 -92 -36 -319 -152 -344 -176 l-25 -25 24 8 c14 4 45 19 70 33 78
43 135 70 156 74 11 1 22 6 25 9 5 5 86 39 95 39 3 0 5 -4 5 -10 0 -5 -6 -10
-14 -10 -9 0 -12 -8 -8 -25 2 -14 9 -25 14 -25 5 0 6 -4 3 -10 -3 -5 -11 -10
-16 -10 -6 0 -8 4 -5 9 3 5 -18 8 -47 6 -68 -3 -67 -2 -67 -21 0 -8 5 -12 10
-9 6 3 10 -2 10 -11 0 -10 -3 -15 -6 -11 -4 3 -13 -1 -21 -9 -9 -8 -28 -18
-44 -21 -16 -3 -34 -12 -40 -19 -6 -8 -23 -14 -38 -14 -15 0 -58 -15 -96 -33
-44 -21 -87 -34 -118 -35 -67 -2 -196 -61 -289 -132 -62 -47 -77 -50 -54 -12
17 26 16 26 -9 -3 -63 -73 -79 -88 -84 -74 -2 7 1 15 8 17 6 2 11 9 11 15 0 7
14 28 31 47 113 129 134 151 137 140 2 -6 -10 -29 -27 -51 -18 -21 -28 -39
-24 -39 15 0 74 84 68 98 -6 16 45 73 110 120 69 51 155 102 171 102 8 0 14 4
14 8 0 5 16 16 35 25 19 9 35 12 35 7 0 -6 -4 -10 -10 -10 -5 0 -10 -4 -10
-10 0 -11 65 25 94 52 11 10 24 18 28 18 5 0 44 22 86 49 42 27 95 57 117 66
22 10 47 21 55 26 8 4 32 8 53 8 37 1 38 0 21 -16z m436 -8 c0 -8 -6 -15 -14
-15 -7 0 -19 -6 -25 -13 -9 -12 -42 -14 -113 -8 -5 1 -8 10 -8 21 0 16 8 20
58 23 31 2 67 4 80 5 14 1 22 -4 22 -13z m-680 -39 c0 -2 -21 -18 -48 -34 -26
-17 -56 -39 -67 -49 -22 -21 -47 -32 -85 -39 -22 -4 -21 -2 10 19 28 19 176
103 188 106 1 1 2 -1 2 -3z m737 -22 c-3 -3 -12 -4 -19 -1 -8 3 -5 6 6 6 11 1
17 -2 13 -5z m-70 -20 c-3 -3 -12 -4 -19 -1 -8 3 -5 6 6 6 11 1 17 -2 13 -5z
m88 -14 c-3 -5 -11 -10 -16 -10 -6 0 -7 5 -4 10 3 6 11 10 16 10 6 0 7 -4 4
-10z m-220 -20 c-16 -11 -38 -20 -47 -20 -9 0 -20 -4 -23 -10 -3 -5 -15 -10
-25 -10 -10 0 -23 -7 -28 -16 -8 -15 -11 -15 -36 1 -35 23 -33 33 11 51 34 15
38 15 50 -2 10 -14 17 -15 35 -7 79 37 108 43 63 13z m75 -30 c-38 -21 -50
-24 -50 -12 0 10 41 29 65 30 14 1 10 -4 -15 -18z m-1327 -32 c-7 -27 -22 -48
-34 -48 -5 0 -1 16 8 35 19 39 34 47 26 13z m181 -19 c-24 -46 -163 -259 -169
-259 -4 0 2 15 24 56 16 29 153 234 157 234 3 0 -3 -14 -12 -31z m713 -46 c-3
-10 -5 -4 -5 12 0 17 2 24 5 18 2 -7 2 -21 0 -30z m319 22 c-23 -17 -36 -19
-36 -6 0 5 10 12 23 14 12 2 24 5 27 5 3 1 -4 -5 -14 -13z m-270 -20 c-16 -16
-36 -20 -36 -7 0 14 12 22 32 22 17 0 18 -2 4 -15z m-988 -35 c-12 -22 -23
-38 -25 -36 -7 7 26 76 36 76 5 0 0 -18 -11 -40z m1031 1 c20 -13 5 -41 -22
-41 -39 0 -63 34 -29 43 28 8 36 7 51 -2z m-1094 -53 c-15 -50 -96 -221 -102
-215 -2 2 13 38 32 80 19 42 35 81 35 88 0 13 42 100 46 96 2 -2 -3 -24 -11
-49z m138 -30 c-36 -53 -36 -52 -69 -128 -15 -36 -36 -74 -46 -85 -18 -19 -18
-19 -18 11 0 16 14 51 30 77 17 26 30 50 30 53 0 4 21 35 47 71 51 69 74 70
26 1z m1242 52 c-3 -5 -13 -10 -21 -10 -8 0 -14 5 -14 10 0 6 9 10 21 10 11 0
17 -4 14 -10z m-1295 -4 c0 -3 -4 -8 -10 -11 -5 -3 -10 -1 -10 4 0 6 5 11 10
11 6 0 10 -2 10 -4z m1198 -18 c-5 -13 -68 -52 -68 -41 0 4 10 17 22 30 23 24
52 31 46 11z m-508 -55 c0 -9 -133 -73 -151 -73 -21 0 1 16 66 49 60 30 85 37
85 24z m180 -41 c0 -6 -33 -31 -41 -32 -13 0 -20 34 -8 40 12 8 49 2 49 -8z
m-100 -24 c0 -5 -5 -8 -11 -8 -5 0 -8 -4 -5 -9 3 -5 16 -7 28 -3 15 4 19 2 13
-7 -4 -7 -16 -11 -26 -8 -11 3 -19 1 -19 -4 0 -5 -6 -9 -14 -9 -8 0 -16 -5
-18 -11 -2 -5 -19 -11 -38 -11 -19 0 -56 -11 -82 -24 -56 -28 -83 -31 -50 -6
14 11 22 26 20 37 -5 30 84 73 149 71 29 0 53 -4 53 -8z m385 -38 c3 -6 -1 -7
-9 -4 -18 7 -21 14 -7 14 6 0 13 -4 16 -10z m-810 -21 c-22 -10 -44 -24 -49
-29 -6 -6 -17 -10 -25 -10 -8 0 -22 -7 -32 -16 -9 -8 -19 -11 -22 -7 -5 8 28
28 113 67 50 22 63 19 15 -5z m-1388 -41 c-3 -8 -6 -5 -6 6 -1 11 2 17 5 13 3
-3 4 -12 1 -19z m1644 -42 c-6 -8 -21 -16 -32 -19 -24 -6 -19 1 13 19 31 16
32 16 19 0z m-749 -118 c-16 -29 -33 -69 -37 -88 -7 -34 -69 -140 -80 -140 -4
0 -4 3 -2 8 9 19 70 150 82 177 42 99 59 129 62 114 2 -9 -9 -41 -25 -71z
m294 53 c0 -13 -18 -29 -53 -48 -29 -15 -55 -34 -58 -40 -7 -19 13 -16 43 6
15 10 37 23 49 30 19 10 22 9 17 -3 -3 -9 -35 -34 -71 -56 -67 -43 -79 -65
-21 -37 18 8 47 18 63 22 29 6 29 6 10 -9 -11 -8 -27 -21 -35 -29 -8 -7 -44
-33 -79 -58 -107 -74 -271 -231 -271 -258 0 -5 -16 -21 -35 -35 -41 -32 -43
-25 -11 53 26 64 160 267 182 275 8 3 14 11 14 19 0 7 11 24 25 37 l25 23 0
-21 c0 -12 3 -22 8 -22 18 1 30 18 37 57 8 50 29 70 97 94 67 22 64 22 64 0z
m774 -27 c0 -8 -5 -14 -10 -14 -6 0 -8 -13 -5 -30 4 -22 1 -30 -10 -31 -8 -1
-19 -2 -25 -3 -5 -1 -11 4 -12 9 0 6 -8 15 -17 22 -20 15 -11 16 23 3 17 -6
26 -6 26 0 0 6 -5 10 -11 10 -5 0 -8 4 -5 9 4 5 0 11 -6 14 -9 3 -7 10 7 24
21 21 45 14 45 -13z m-951 -76 c-7 -13 -14 -18 -16 -11 -3 7 1 22 8 35 7 13
14 18 16 11 3 -7 -1 -22 -8 -35z m978 20 c-3 -8 -6 -5 -6 6 -1 11 2 17 5 13 3
-3 4 -12 1 -19z m-17 -78 c-26 -20 -50 -26 -50 -12 0 8 45 29 65 31 6 0 -1 -8
-15 -19z m-1226 -50 c-10 -16 -19 -28 -21 -26 -6 6 20 56 29 56 5 0 1 -13 -8
-30z m356 -13 c0 -2 -43 -37 -95 -78 -54 -43 -92 -79 -90 -87 3 -7 0 -10 -5
-7 -6 3 -10 1 -10 -4 0 -12 -79 -65 -86 -58 -6 6 123 131 171 166 53 38 115
75 115 68z m-260 -31 c0 -2 -8 -10 -17 -17 -16 -13 -17 -12 -4 4 13 16 21 21
21 13z m277 -11 c0 -8 -7 -15 -16 -15 -13 0 -13 -2 -2 -9 20 -13 6 -28 -37
-42 -20 -7 -57 -23 -80 -36 -24 -14 -47 -22 -50 -18 -4 3 -2 9 4 13 120 80
155 105 159 113 9 14 22 11 22 -6z m-424 -40 c-3 -9 -8 -14 -10 -11 -3 3 -2 9
2 15 9 16 15 13 8 -4z m117 5 c0 -5 -5 -10 -11 -10 -5 0 -7 5 -4 10 3 6 8 10
11 10 2 0 4 -4 4 -10z m295 -60 c3 -5 1 -10 -4 -10 -15 0 -14 -27 2 -34 6 -4
2 -4 -11 -2 -12 2 -19 0 -16 -5 6 -10 -20 -33 -85 -78 -33 -21 -97 -79 -142
-125 -10 -10 -16 -23 -12 -28 3 -6 24 9 47 31 23 23 45 41 49 41 17 0 4 -24
-30 -56 -30 -27 -45 -34 -71 -32 -23 2 -38 -3 -47 -15 -12 -16 -14 -16 -29 -2
-18 18 -21 45 -6 45 5 0 9 9 7 20 -4 28 -17 37 -17 13 0 -12 -4 -23 -9 -25 -5
-1 -23 -26 -39 -55 -27 -45 -29 -52 -14 -56 13 -3 11 -7 -10 -17 -16 -7 -28
-20 -28 -29 0 -15 -46 -76 -98 -130 -19 -19 -21 -26 -10 -32 10 -7 10 -9 1 -9
-7 0 -13 -7 -13 -16 0 -8 -7 -22 -15 -31 -12 -12 -19 -12 -30 -3 -12 10 -9 22
21 79 19 36 45 82 56 101 11 19 39 71 61 115 63 121 159 209 315 284 158 77
166 79 177 61z m941 -15 c-52 -28 -60 -30 -51 -15 7 12 63 38 84 39 8 1 -7
-10 -33 -24z m-1589 -47 c-3 -7 -5 -2 -5 12 0 14 2 19 5 13 2 -7 2 -19 0 -25z
m-187 -8 c-13 -8 -13 -11 -1 -19 9 -6 11 -18 6 -37 l-7 -29 -23 29 c-29 36
-23 66 14 66 20 0 23 -2 11 -10z m-76 -47 c3 -8 -1 -10 -12 -6 -26 9 -52 35
-46 44 6 10 50 -19 58 -38z m876 -2 c0 -5 -7 -12 -16 -15 -24 -9 -28 -7 -14 9
14 17 30 20 30 6z m-475 -61 c-4 -12 -9 -19 -12 -17 -3 3 -2 15 2 27 4 12 9
19 12 17 3 -3 2 -15 -2 -27z m445 20 c0 -5 -7 -7 -15 -4 -8 4 -15 8 -15 10 0
2 7 4 15 4 8 0 15 -4 15 -10z m-31 -22 c-11 -12 -69 -23 -69 -13 0 4 54 22 73
24 4 1 3 -5 -4 -11z m-939 -29 c17 -31 -5 -30 -24 1 -15 26 -15 29 -1 24 8 -4
20 -15 25 -25z m78 -81 c-21 -13 -27 -10 -42 21 -21 39 -8 47 26 14 21 -20 25
-29 16 -35z m146 -85 c-33 -68 -49 -92 -52 -78 -5 27 -22 44 -22 22 0 -9 -4
-17 -10 -17 -5 0 -7 7 -3 16 3 9 0 20 -7 24 -17 10 -5 60 15 60 8 0 15 9 15
20 0 12 7 21 18 21 53 4 66 8 74 23 6 10 12 15 15 13 2 -3 -17 -50 -43 -104z
m57 20 c-12 -20 -14 -14 -5 12 4 9 9 14 11 11 3 -2 0 -13 -6 -23z m-187 -9
c18 -7 22 -49 6 -59 -5 -3 -10 3 -10 14 0 11 -4 23 -10 26 -10 6 -14 25 -6 25
2 0 11 -3 20 -6z m1576 -154 c-20 -13 -33 -13 -25 0 3 6 14 10 23 10 15 0 15
-2 2 -10z m-1267 -166 c-27 -20 -32 -17 -20 10 9 18 15 22 24 14 11 -8 10 -13
-4 -24z m-288 -151 c-9 -43 -30 -125 -45 -183 -15 -58 -31 -120 -35 -137 -4
-18 -11 -33 -16 -33 -12 0 -13 -8 16 127 25 120 85 316 93 308 3 -3 -3 -40
-13 -82z m278 78 c4 -1 7 -8 7 -17 0 -11 5 -14 16 -10 22 8 13 -15 -12 -28
-10 -6 -21 -13 -24 -16 -9 -11 -81 -50 -90 -50 -9 0 32 91 52 117 5 6 17 10
26 8 9 -2 20 -4 25 -4z m87 -71 c0 -5 -4 -10 -10 -10 -5 0 -10 5 -10 10 0 6 5
10 10 10 6 0 10 -4 10 -10z m-344 -67 c-5 -47 -9 -63 -39 -188 -20 -82 -28
-105 -37 -105 -4 0 -10 -23 -14 -51 -4 -28 -13 -57 -20 -64 -13 -13 -29 -97
-28 -145 3 -80 1 -108 -7 -135 -5 -16 -12 -54 -15 -83 -2 -29 -9 -59 -14 -65
-5 -7 -12 -24 -16 -39 -4 -16 -17 -31 -36 -40 -16 -7 -30 -16 -30 -19 0 -3 -6
-6 -13 -6 -11 0 -12 18 -9 79 3 49 1 78 -6 78 -13 0 -22 -49 -13 -73 5 -13 -4
-42 -25 -86 -18 -36 -49 -101 -70 -144 -21 -43 -42 -81 -46 -83 -11 -7 -10 50
1 78 6 13 13 40 16 62 6 36 7 37 21 20 15 -18 15 -18 10 5 -3 14 1 36 9 50 7
14 23 67 35 116 24 98 39 134 40 100 l1 -20 9 20 c4 11 16 59 25 108 12 59 22
87 31 87 8 0 14 9 14 19 0 11 5 23 10 26 6 3 10 28 10 55 0 27 5 52 12 56 8 5
9 -6 5 -41 -4 -26 -7 -62 -7 -79 0 -22 -3 -27 -9 -17 -7 10 -11 1 -16 -32 -8
-54 -2 -79 19 -71 10 4 16 31 21 95 6 75 9 87 20 73 10 -14 13 -6 18 50 7 72
25 122 28 76 1 -16 5 -10 11 20 5 25 17 53 25 63 13 13 13 17 3 17 -9 0 -7 5
5 14 10 7 16 20 12 28 -3 9 1 26 10 37 8 12 13 25 9 28 -3 3 1 20 8 38 8 17
17 55 21 83 9 65 17 68 11 5z m127 12 c-3 -9 -8 -14 -10 -11 -3 3 -2 9 2 15 9
16 15 13 8 -4z m-257 -207 c-12 -68 -29 -136 -39 -153 l-16 -30 -1 28 c0 19 4
26 12 21 8 -5 9 -2 5 9 -3 9 -2 29 2 44 5 15 17 62 26 103 18 85 23 100 28
100 2 0 -5 -55 -17 -122z m-166 -498 c0 -5 -2 -10 -4 -10 -3 0 -8 5 -11 10 -3
6 -1 10 4 10 6 0 11 -4 11 -10z m-70 -35 c0 -8 -4 -15 -10 -15 -5 0 -7 7 -4
15 4 8 8 15 10 15 2 0 4 -7 4 -15z m-26 -90 c-4 -8 -8 -15 -10 -15 -2 0 -4 7
-4 15 0 8 4 15 10 15 5 0 7 -7 4 -15z m-72 -268 c-6 -21 -6 -40 0 -50 7 -13 5
-17 -7 -17 -18 0 -18 7 -2 84 6 34 13 51 15 39 2 -12 -1 -37 -6 -56z"/>
<path d="M5465 5210 c-3 -5 -1 -10 4 -10 6 0 11 5 11 10 0 6 -2 10 -4 10 -3 0
-8 -4 -11 -10z"/>
<path d="M4460 4525 c-15 -17 -4 -37 18 -33 10 1 23 -1 30 -6 9 -5 20 -2 30 8
15 14 15 18 2 26 -8 5 -17 7 -21 4 -4 -2 -10 0 -14 6 -9 14 -31 12 -45 -5z"/>
<path d="M4367 4373 c-23 -4 -26 -7 -16 -19 13 -16 39 -19 39 -3 0 12 42 2 51
-13 3 -5 13 -6 22 -2 42 16 -37 46 -96 37z"/>
<path d="M4216 4264 c-11 -7 -16 -17 -12 -21 4 -4 10 -3 14 3 4 6 14 13 22 16
7 2 10 7 4 10 -5 4 -18 0 -28 -8z"/>
<path d="M3742 3999 c-7 -12 -11 -24 -7 -27 7 -8 25 17 25 36 0 17 -3 15 -18
-9z"/>
<path d="M4270 4005 c0 -9 6 -12 15 -9 8 4 15 10 15 15 0 5 -7 9 -15 9 -8 0
-15 -7 -15 -15z"/>
<path d="M4235 3831 c-6 -11 9 -23 19 -14 9 9 7 23 -3 23 -6 0 -12 -4 -16 -9z"/>
<path d="M4030 3720 c0 -5 5 -10 11 -10 5 0 7 5 4 10 -3 6 -8 10 -11 10 -2 0
-4 -4 -4 -10z"/>
<path d="M3370 3219 c-22 -18 -22 -19 -3 -10 12 6 25 16 28 21 9 15 3 12 -25
-11z"/>
<path d="M3155 3010 c-4 -12 -5 -24 -2 -27 3 -2 8 5 12 17 4 12 5 24 2 27 -3
2 -8 -5 -12 -17z"/>
<path d="M2321 1564 c0 -11 3 -14 6 -6 3 7 2 16 -1 19 -3 4 -6 -2 -5 -13z"/>
<path d="M2326 1488 c-9 -34 -7 -38 8 -32 10 4 16 -3 18 -18 3 -20 4 -19 9 8
4 26 2 30 -12 27 -14 -4 -16 0 -12 16 3 12 3 21 0 21 -2 0 -7 -10 -11 -22z"/>
<path d="M2322 1415 c0 -16 2 -22 5 -12 2 9 2 23 0 30 -3 6 -5 -1 -5 -18z"/>
<path d="M2327 1303 c-4 -3 -7 -11 -7 -17 0 -6 5 -5 12 2 6 6 9 14 7 17 -3 3
-9 2 -12 -2z"/>
<path d="M2152 1100 c0 -14 2 -19 5 -12 2 6 2 18 0 25 -3 6 -5 1 -5 -13z"/>
<path d="M5536 6804 c-5 -14 -4 -15 9 -4 17 14 19 20 6 20 -5 0 -12 -7 -15
-16z"/>
<path d="M4410 6775 c-7 -20 -9 -42 -6 -50 2 -7 2 -15 -2 -17 -4 -2 -17 -31
-29 -65 -18 -52 -19 -64 -8 -73 11 -9 15 -4 21 24 3 20 10 39 15 42 5 3 9 13
9 22 0 10 9 35 20 57 25 50 25 57 -1 25 -17 -21 -20 -21 -14 -5 11 34 18 75
12 75 -3 0 -11 -16 -17 -35z"/>
<path d="M5506 6763 c-6 -14 -5 -15 5 -6 7 7 10 15 7 18 -3 3 -9 -2 -12 -12z"/>
<path d="M4221 6754 c0 -11 3 -14 6 -6 3 7 2 16 -1 19 -3 4 -6 -2 -5 -13z"/>
<path d="M5097 6728 c-9 -24 -30 -92 -47 -153 -38 -133 -72 -234 -100 -298
-12 -27 -19 -51 -17 -54 15 -14 80 165 151 416 36 125 42 168 13 89z"/>
<path d="M4033 6688 c-1 -46 2 -66 8 -57 11 17 12 116 1 123 -4 2 -9 -27 -9
-66z"/>
<path d="M4317 6743 c-4 -3 -7 -11 -7 -17 0 -6 5 -5 12 2 6 6 9 14 7 17 -3 3
-9 2 -12 -2z"/>
<path d="M4140 6696 c-19 -31 -82 -207 -77 -213 10 -9 27 25 51 98 15 48 34
99 42 114 21 41 10 42 -16 1z"/>
<path d="M4286 6678 c-8 -19 -17 -47 -21 -64 -3 -16 5 -2 19 30 14 33 23 62
21 65 -3 2 -11 -11 -19 -31z"/>
<path d="M6189 6653 c-13 -16 -12 -17 4 -4 9 7 17 15 17 17 0 8 -8 3 -21 -13z"/>
<path d="M6240 6635 c0 -8 7 -15 15 -15 8 0 15 7 15 15 0 8 -7 15 -15 15 -8 0
-15 -7 -15 -15z"/>
<path d="M4017 6581 c-4 -18 -7 -43 -6 -55 1 -11 5 -1 10 24 5 25 7 49 6 55
-2 5 -7 -5 -10 -24z"/>
<path d="M4991 6594 c0 -11 3 -14 6 -6 3 7 2 16 -1 19 -3 4 -6 -2 -5 -13z"/>
<path d="M4245 6560 c-4 -12 -5 -24 -2 -27 3 -2 8 5 12 17 4 12 5 24 2 27 -3
2 -8 -5 -12 -17z"/>
<path d="M4362 6520 c0 -14 2 -19 5 -12 2 6 2 18 0 25 -3 6 -5 1 -5 -13z"/>
<path d="M4222 6463 c-6 -32 -13 -81 -16 -108 -5 -59 9 -238 23 -292 6 -21 13
-56 17 -78 4 -22 9 -32 11 -23 3 10 -3 46 -13 80 -20 72 -27 335 -12 419 5 28
7 53 5 55 -2 3 -9 -21 -15 -53z"/>
<path d="M6113 6499 c-33 -21 -40 -29 -25 -29 8 1 70 50 62 50 -3 0 -20 -10
-37 -21z"/>
<path d="M4971 6494 c0 -11 3 -14 6 -6 3 7 2 16 -1 19 -3 4 -6 -2 -5 -13z"/>
<path d="M3920 6495 c1 -6 7 -35 15 -65 l15 -55 -6 55 c-3 30 -10 59 -15 65
-6 6 -9 6 -9 0z"/>
<path d="M4002 6475 c0 -16 2 -22 5 -12 2 9 2 23 0 30 -3 6 -5 -1 -5 -18z"/>
<path d="M3761 6474 c0 -11 3 -14 6 -6 3 7 2 16 -1 19 -3 4 -6 -2 -5 -13z"/>
<path d="M4057 6456 c-4 -10 -5 -21 -2 -24 9 -9 17 6 13 25 -3 17 -4 17 -11
-1z"/>
<path d="M3992 6420 c0 -14 2 -19 5 -12 2 6 2 18 0 25 -3 6 -5 1 -5 -13z"/>
<path d="M5197 6385 c-10 -14 -14 -25 -10 -25 4 0 16 12 26 25 10 14 14 25 10
25 -4 0 -16 -12 -26 -25z"/>
<path d="M4550 6385 c-6 -8 -10 -19 -8 -26 2 -6 9 0 16 15 13 29 10 33 -8 11z"/>
<path d="M6075 6365 c-16 -14 -25 -25 -20 -25 6 1 24 12 40 25 17 14 26 25 20
25 -5 -1 -23 -12 -40 -25z"/>
<path d="M3886 6345 c-9 -26 -7 -32 5 -12 6 10 9 21 6 23 -2 3 -7 -2 -11 -11z"/>
<path d="M3951 6334 c0 -11 3 -14 6 -6 3 7 2 16 -1 19 -3 4 -6 -2 -5 -13z"/>
<path d="M3980 6322 c0 -10 -4 -22 -9 -27 -5 -6 -11 -50 -14 -99 -5 -70 -4
-87 6 -77 6 6 13 40 14 74 1 34 5 81 8 105 3 23 4 42 1 42 -3 0 -6 -8 -6 -18z"/>
<path d="M5725 6320 c-3 -6 1 -7 9 -4 18 7 21 14 7 14 -6 0 -13 -4 -16 -10z"/>
<path d="M6002 6315 c-13 -7 -20 -15 -15 -18 5 -3 20 3 33 14 28 21 17 24 -18
4z"/>
<path d="M6074 6305 c-10 -8 -14 -15 -8 -15 6 0 17 7 24 15 16 19 9 19 -16 0z"/>
<path d="M3873 6268 c-7 -24 -15 -52 -19 -63 -6 -19 -5 -19 9 1 15 20 35 104
25 104 -2 0 -9 -19 -15 -42z"/>
<path d="M5840 6290 c-11 -11 -24 -20 -30 -20 -5 0 -10 -4 -10 -8 0 -4 -14
-16 -32 -27 -18 -10 -27 -20 -20 -23 7 -2 39 19 73 47 33 28 56 51 50 51 -6 0
-20 -9 -31 -20z"/>
<path d="M4061 6274 c0 -11 3 -14 6 -6 3 7 2 16 -1 19 -3 4 -6 -2 -5 -13z"/>
<path d="M5950 6280 c0 -5 4 -10 9 -10 6 0 13 5 16 10 3 6 -1 10 -9 10 -9 0
-16 -4 -16 -10z"/>
<path d="M3716 6268 c-4 -11 -15 -61 -31 -133 -3 -11 4 -2 14 19 18 37 19 38
24 15 2 -13 5 6 6 44 1 62 -4 84 -13 55z"/>
<path d="M3621 6218 c-5 -14 -15 -45 -21 -68 -6 -23 -24 -65 -39 -93 -43 -81
-81 -201 -73 -230 1 -5 -2 -6 -7 -3 -5 3 -7 14 -4 24 2 10 -3 24 -11 31 -14
12 -16 6 -16 -52 0 -119 -22 -170 -36 -82 -3 25 -11 48 -16 52 -7 4 -8 -6 -3
-28 5 -19 8 -71 7 -116 0 -46 4 -83 9 -83 5 0 10 -37 10 -82 1 -75 2 -78 9
-37 4 25 15 59 23 75 8 16 18 65 22 110 11 124 25 126 26 4 1 -139 15 -94 24
80 4 73 11 146 16 163 5 17 7 32 5 35 -3 2 -11 -18 -19 -45 l-15 -48 -1 38
c-1 38 30 127 55 157 7 8 17 35 24 60 7 25 16 50 20 55 11 13 31 98 25 104 -3
2 -9 -8 -14 -21z"/>
<path d="M4427 6158 c-23 -110 -28 -156 -18 -163 6 -3 12 9 15 27 2 18 11 72
19 121 17 105 5 116 -16 15z"/>
<path d="M5675 6171 c-48 -34 -156 -91 -171 -91 -6 0 -17 -7 -24 -15 -7 -8
-21 -15 -32 -15 -10 0 -16 -4 -13 -10 3 -5 1 -10 -6 -10 -7 0 -10 -2 -7 -5 7
-8 158 70 248 127 41 26 68 48 60 48 -8 -1 -33 -14 -55 -29z"/>
<path d="M6310 6185 c-7 -9 -8 -15 -2 -15 5 0 12 7 16 15 3 8 4 15 2 15 -2 0
-9 -7 -16 -15z"/>
<path d="M4131 6174 c0 -11 3 -14 6 -6 3 7 2 16 -1 19 -3 4 -6 -2 -5 -13z"/>
<path d="M4886 6156 c-9 -19 -16 -37 -16 -41 0 -11 -121 -196 -158 -243 -19
-23 -32 -45 -30 -48 3 -3 16 8 28 23 12 15 45 53 73 83 60 63 123 166 105 172
-9 3 -7 15 6 42 10 21 16 40 13 42 -2 3 -12 -11 -21 -30z"/>
<path d="M5545 6162 c-16 -9 -73 -37 -125 -61 -160 -74 -254 -124 -281 -147
-8 -8 -21 -14 -28 -14 -6 0 -14 -7 -17 -15 -4 -8 -12 -15 -20 -15 -12 0 -30
-14 -110 -87 -14 -13 -29 -23 -34 -23 -6 0 -10 -5 -10 -10 0 -6 -9 -21 -21
-33 -19 -21 -20 -21 -14 -2 10 30 -36 -25 -96 -114 -48 -73 -63 -107 -34 -77
8 8 15 20 15 26 0 34 306 302 408 357 15 8 45 25 67 39 56 34 132 75 185 99
52 24 160 85 160 91 0 8 -16 3 -45 -14z"/>
<path d="M5969 6159 c-19 -16 -20 -18 -4 -10 34 17 51 31 39 31 -7 0 -22 -9
-35 -21z"/>
<path d="M5915 6130 c-3 -5 -1 -10 4 -10 6 0 11 5 11 10 0 6 -2 10 -4 10 -3 0
-8 -4 -11 -10z"/>
<path d="M5817 6059 c-22 -11 -36 -23 -33 -26 7 -8 86 29 86 40 0 11 -11 8
-53 -14z"/>
<path d="M6015 6070 c-3 -6 1 -7 9 -4 18 7 21 14 7 14 -6 0 -13 -4 -16 -10z"/>
<path d="M5735 6010 c-3 -6 1 -7 9 -4 18 7 21 14 7 14 -6 0 -13 -4 -16 -10z"/>
<path d="M4927 6003 c-4 -3 -7 -11 -7 -17 0 -6 5 -5 12 2 6 6 9 14 7 17 -3 3
-9 2 -12 -2z"/>
<path d="M5374 5994 c-18 -14 -18 -14 6 -3 31 14 36 19 24 19 -6 0 -19 -7 -30
-16z"/>
<path d="M5620 5973 c-25 -14 -99 -53 -165 -87 -66 -35 -187 -98 -270 -141
-137 -72 -295 -169 -303 -187 -2 -5 -8 -8 -14 -8 -8 0 -74 -45 -88 -60 -3 -4
-23 -19 -45 -36 -65 -48 -102 -99 -72 -99 6 0 11 6 10 13 -2 6 3 12 11 12 7 0
20 7 27 16 12 14 108 87 294 223 22 16 69 45 105 64 36 19 110 58 165 87 55
29 130 70 167 91 37 20 77 40 89 44 12 4 48 23 78 43 67 42 66 41 60 47 -3 2
-25 -7 -49 -22z"/>
<path d="M6200 5977 c-8 -7 -24 -24 -35 -37 -12 -15 -4 -11 18 9 33 31 42 42
35 41 -2 0 -10 -6 -18 -13z"/>
<path d="M5305 5960 c-3 -6 1 -7 9 -4 18 7 21 14 7 14 -6 0 -13 -4 -16 -10z"/>
<path d="M3441 5944 c0 -11 3 -14 6 -6 3 7 2 16 -1 19 -3 4 -6 -2 -5 -13z"/>
<path d="M5270 5940 c-9 -6 -10 -10 -3 -10 6 0 15 5 18 10 8 12 4 12 -15 0z"/>
<path d="M5875 5940 c-3 -5 -2 -10 4 -10 5 0 13 5 16 10 3 6 2 10 -4 10 -5 0
-13 -4 -16 -10z"/>
<path d="M5683 5911 c-18 -9 -33 -19 -33 -24 0 -6 76 27 89 39 11 10 -27 0
-56 -15z"/>
<path d="M5225 5910 c-3 -5 -2 -10 4 -10 5 0 13 5 16 10 3 6 2 10 -4 10 -5 0
-13 -4 -16 -10z"/>
<path d="M5601 5866 c-10 -12 -8 -13 9 -9 25 7 37 23 17 23 -8 0 -20 -6 -26
-14z"/>
<path d="M5917 5844 c-16 -14 -25 -29 -22 -32 4 -4 12 0 18 9 7 9 22 19 35 23
12 4 20 12 17 17 -9 14 -18 11 -48 -17z"/>
<path d="M5650 5820 c-8 -5 -10 -10 -5 -10 6 0 17 5 25 10 8 5 11 10 5 10 -5
0 -17 -5 -25 -10z"/>
<path d="M5865 5810 c-3 -5 -1 -10 4 -10 6 0 11 5 11 10 0 6 -2 10 -4 10 -3 0
-8 -4 -11 -10z"/>
<path d="M4412 5770 c0 -19 3 -44 8 -55 7 -17 9 -15 8 10 0 17 -4 41 -8 55 -7
23 -8 22 -8 -10z"/>
<path d="M5608 5793 c7 -3 16 -2 19 1 4 3 -2 6 -13 5 -11 0 -14 -3 -6 -6z"/>
<path d="M4142 5750 c0 -19 2 -27 5 -17 2 9 2 25 0 35 -3 9 -5 1 -5 -18z"/>
<path d="M4980 5773 c0 -6 -18 -23 -41 -37 -22 -15 -38 -30 -35 -33 3 -4 16 3
29 15 13 12 28 22 34 22 12 0 26 30 18 38 -3 3 -5 1 -5 -5z"/>
<path d="M5606 5744 c-96 -50 -76 -53 25 -4 46 22 75 39 64 39 -11 0 -51 -16
-89 -35z"/>
<path d="M5752 5759 c-48 -32 -31 -35 24 -5 30 16 41 26 29 26 -11 0 -35 -10
-53 -21z"/>
<path d="M4611 5734 c-12 -15 -21 -31 -21 -37 0 -12 -1 -13 29 31 27 38 21 43
-8 6z"/>
<path d="M4372 5720 c0 -14 2 -19 5 -12 2 6 2 18 0 25 -3 6 -5 1 -5 -13z"/>
<path d="M4606 5668 c-34 -54 -39 -73 -12 -45 8 8 13 17 10 20 -3 3 4 10 15
16 26 14 45 48 31 56 -5 3 -25 -18 -44 -47z"/>
<path d="M5688 5713 c7 -3 16 -2 19 1 4 3 -2 6 -13 5 -11 0 -14 -3 -6 -6z"/>
<path d="M3375 5679 c-4 -6 -5 -12 -2 -15 2 -3 7 2 10 11 7 17 1 20 -8 4z"/>
<path d="M4870 5675 c-8 -9 -8 -15 -2 -15 12 0 26 19 19 26 -2 2 -10 -2 -17
-11z"/>
<path d="M3810 5642 c0 -23 4 -42 9 -42 6 0 7 17 4 38 -8 51 -13 53 -13 4z"/>
<path d="M4367 5663 c-4 -3 -7 -16 -6 -27 0 -19 1 -19 10 3 10 24 8 36 -4 24z"/>
<path d="M4127 5545 c-10 -66 -21 -131 -24 -145 -4 -19 -3 -22 6 -14 14 13 43
194 39 244 -2 22 -10 -11 -21 -85z"/>
<path d="M4422 5625 c0 -16 2 -22 5 -12 2 9 2 23 0 30 -3 6 -5 -1 -5 -18z"/>
<path d="M3341 5588 c1 -37 2 -39 9 -18 12 36 12 60 0 60 -5 0 -10 -19 -9 -42z"/>
<path d="M4101 5614 c0 -11 3 -14 6 -6 3 7 2 16 -1 19 -3 4 -6 -2 -5 -13z"/>
<path d="M4412 5570 c0 -14 2 -19 5 -12 2 6 2 18 0 25 -3 6 -5 1 -5 -13z"/>
<path d="M4391 5517 c-16 -42 -12 -68 5 -28 8 18 13 38 11 45 -3 6 -10 -2 -16
-17z"/>
<path d="M3282 5510 c0 -14 2 -19 5 -12 2 6 2 18 0 25 -3 6 -5 1 -5 -13z"/>
<path d="M3511 5504 c0 -11 3 -14 6 -6 3 7 2 16 -1 19 -3 4 -6 -2 -5 -13z"/>
<path d="M4629 5409 c-13 -17 -30 -37 -36 -44 -14 -15 -17 -29 -5 -21 10 6 74
96 69 96 -3 0 -15 -14 -28 -31z"/>
<path d="M5370 5389 c-32 -34 -42 -62 -12 -37 9 8 27 24 40 34 12 10 22 22 22
26 0 17 -21 7 -50 -23z"/>
<path d="M3411 5374 c0 -11 3 -14 6 -6 3 7 2 16 -1 19 -3 4 -6 -2 -5 -13z"/>
<path d="M4080 5319 c-7 -24 -14 -47 -17 -51 -2 -5 0 -8 5 -8 10 0 36 89 28
97 -3 3 -10 -15 -16 -38z"/>
<path d="M3191 5313 c-11 -38 -9 -49 7 -39 12 7 21 65 11 72 -4 2 -13 -12 -18
-33z"/>
<path d="M3435 5330 c-10 -17 -42 -147 -52 -212 -10 -68 -7 -398 4 -409 4 -4
7 74 5 174 -3 188 12 326 44 411 14 37 14 60 -1 36z"/>
<path d="M3015 5300 c-3 -5 -1 -10 4 -10 6 0 11 5 11 10 0 6 -2 10 -4 10 -3 0
-8 -4 -11 -10z"/>
<path d="M3831 5244 c0 -11 3 -14 6 -6 3 7 2 16 -1 19 -3 4 -6 -2 -5 -13z"/>
<path d="M3182 5230 c0 -14 2 -19 5 -12 2 6 2 18 0 25 -3 6 -5 1 -5 -13z"/>
<path d="M4043 5200 c-6 -17 -8 -30 -3 -30 8 0 24 50 18 56 -2 2 -9 -10 -15
-26z"/>
<path d="M4355 5219 c-4 -6 -5 -12 -2 -15 2 -3 7 2 10 11 7 17 1 20 -8 4z"/>
<path d="M3449 5172 c-8 -27 -8 -45 -1 -57 8 -15 11 -8 17 34 9 64 1 77 -16
23z"/>
<path d="M2782 5154 c11 -19 22 -33 24 -31 6 6 -20 56 -33 61 -6 3 -2 -11 9
-30z"/>
<path d="M3842 5124 c1 -55 3 -63 9 -39 5 16 6 45 4 63 -8 60 -15 48 -13 -24z"/>
<path d="M4615 5170 c-3 -5 -2 -10 4 -10 5 0 13 5 16 10 3 6 2 10 -4 10 -5 0
-13 -4 -16 -10z"/>
<path d="M3538 5154 c-5 -4 -8 -21 -7 -38 0 -30 0 -30 10 -7 11 27 8 57 -3 45z"/>
<path d="M3872 5090 c0 -19 2 -27 5 -17 2 9 2 25 0 35 -3 9 -5 1 -5 -18z"/>
<path d="M4011 5104 c0 -11 3 -14 6 -6 3 7 2 16 -1 19 -3 4 -6 -2 -5 -13z"/>
<path d="M4854 5104 c-18 -14 -18 -15 4 -4 12 6 22 13 22 15 0 8 -5 6 -26 -11z"/>
<path d="M4680 5059 c-135 -71 -169 -93 -220 -140 l-45 -41 40 23 c22 12 47
28 56 36 8 7 21 13 29 13 7 0 23 10 35 23 35 34 43 39 135 86 96 50 99 51 79
51 -8 -1 -57 -23 -109 -51z"/>
<path d="M4446 5038 c-38 -37 -9 -39 31 -2 15 14 23 23 16 20 -6 -3 -13 -2
-15 2 -1 5 -16 -4 -32 -20z"/>
<path d="M3642 5010 c0 -14 2 -19 5 -12 2 6 2 18 0 25 -3 6 -5 1 -5 -13z"/>
<path d="M3528 4882 c-5 -77 -4 -121 3 -135 6 -11 12 -49 14 -84 1 -35 5 -67
10 -71 4 -4 4 34 0 83 -4 50 -11 142 -14 205 l-6 115 -7 -113z"/>
<path d="M3262 4960 c0 -14 2 -19 5 -12 2 6 2 18 0 25 -3 6 -5 1 -5 -13z"/>
<path d="M2951 4954 c0 -11 3 -14 6 -6 3 7 2 16 -1 19 -3 4 -6 -2 -5 -13z"/>
<path d="M3487 4953 c-4 -3 -7 -11 -7 -17 0 -6 5 -5 12 2 6 6 9 14 7 17 -3 3
-9 2 -12 -2z"/>
<path d="M3631 4907 c-16 -68 -41 -208 -41 -227 1 -36 31 74 46 168 17 112 15
143 -5 59z"/>
<path d="M4550 4920 c-9 -6 -10 -10 -3 -10 6 0 15 5 18 10 8 12 4 12 -15 0z"/>
<path d="M3272 4865 c0 -16 2 -22 5 -12 2 9 2 23 0 30 -3 6 -5 -1 -5 -18z"/>
<path d="M2478 4658 c7 -31 42 -76 42 -55 0 9 -7 22 -15 31 -8 8 -15 19 -15
25 0 5 -4 12 -9 15 -5 4 -7 -4 -3 -16z"/>
<path d="M3581 4624 c0 -11 3 -14 6 -6 3 7 2 16 -1 19 -3 4 -6 -2 -5 -13z"/>
<path d="M2851 4584 c0 -11 3 -14 6 -6 3 7 2 16 -1 19 -3 4 -6 -2 -5 -13z"/>
<path d="M2525 4580 c-3 -5 -1 -10 4 -10 6 0 11 5 11 10 0 6 -2 10 -4 10 -3 0
-8 -4 -11 -10z"/>
<path d="M2467 4566 c-9 -23 2 -86 14 -86 10 0 10 43 0 80 -6 22 -8 23 -14 6z"/>
<path d="M2838 4545 c3 -21 7 -23 18 -14 8 7 13 12 12 13 -2 1 -10 7 -19 14
-14 11 -16 9 -11 -13z"/>
<path d="M3183 4520 c0 -25 2 -35 4 -22 2 12 2 32 0 45 -2 12 -4 2 -4 -23z"/>
<path d="M2530 4523 c0 -4 5 -15 10 -23 8 -13 10 -13 10 2 0 9 -4 20 -10 23
-5 3 -10 3 -10 -2z"/>
<path d="M2471 4439 c-19 -55 -11 -272 8 -240 4 5 6 -21 6 -58 0 -38 -3 -67
-7 -64 -5 2 -8 15 -8 28 0 13 -5 27 -11 31 -11 6 -10 -3 8 -88 4 -18 6 -41 4
-50 -1 -9 7 -19 19 -23 11 -3 20 -12 20 -20 0 -7 14 -20 30 -29 17 -8 30 -13
30 -11 0 1 -14 32 -31 69 -29 62 -31 74 -36 221 -4 108 -3 155 5 155 6 0 13
-15 15 -32 3 -30 4 -30 5 7 2 49 -13 78 -28 55 -8 -13 -10 -12 -11 5 -1 11 -1
32 0 48 3 36 -4 34 -18 -4z"/>
<path d="M3182 4430 c0 -38 13 -76 21 -64 4 7 0 29 -7 50 -12 31 -15 34 -14
14z"/>
<path d="M2566 4415 c5 -35 20 -110 28 -142 2 -13 10 -31 16 -40 10 -16 11
-14 6 7 -3 14 -13 57 -22 95 -18 79 -36 130 -28 80z"/>
<path d="M2612 4350 c0 -19 2 -27 5 -17 2 9 2 25 0 35 -3 9 -5 1 -5 -18z"/>
<path d="M3431 4328 c0 -14 -4 -35 -7 -45 -5 -17 -5 -17 6 0 6 10 9 30 7 45
l-4 27 -2 -27z"/>
<path d="M3200 4278 c0 -15 5 -30 10 -33 13 -8 13 25 0 45 -8 12 -10 9 -10
-12z"/>
<path d="M2636 4250 c7 -47 23 -90 24 -60 0 8 -7 35 -15 60 l-15 45 6 -45z"/>
<path d="M2388 4195 c-3 -12 -2 -48 1 -80 l5 -60 6 50 c7 56 -2 125 -12 90z"/>
<path d="M3426 4145 c-9 -26 -7 -32 5 -12 6 10 9 21 6 23 -2 3 -7 -2 -11 -11z"/>
<path d="M2350 4140 c0 -21 17 -46 25 -38 4 4 0 17 -9 30 -10 14 -16 17 -16 8z"/>
<path d="M3204 4025 c0 -70 3 -118 7 -108 10 27 11 187 1 212 -5 14 -8 -28 -8
-104z"/>
<path d="M2660 4058 c0 -13 4 -28 9 -33 11 -13 31 -96 31 -129 0 -14 4 -26 8
-26 5 0 13 -10 18 -22 6 -13 9 -18 8 -12 -1 6 -5 37 -9 70 -5 32 -16 72 -26
89 -11 16 -19 40 -19 52 0 12 -4 25 -10 28 -6 3 -10 -4 -10 -17z"/>
<path d="M2342 4048 c-6 -6 -12 -21 -12 -32 0 -20 1 -19 16 2 18 26 15 49 -4
30z"/>
<path d="M2384 4030 c12 -61 18 -340 8 -340 -11 0 7 -66 35 -125 7 -16 11 -21
7 -10 -16 47 -24 126 -23 205 2 113 -9 259 -22 279 -8 13 -9 11 -5 -9z"/>
<path d="M2450 4014 c0 -8 5 -12 10 -9 6 4 8 11 5 16 -9 14 -15 11 -15 -7z"/>
<path d="M2330 3946 c0 -28 14 -35 23 -12 3 8 -1 20 -9 26 -12 10 -14 8 -14
-14z"/>
<path d="M2661 3944 c0 -11 3 -14 6 -6 3 7 2 16 -1 19 -3 4 -6 -2 -5 -13z"/>
<path d="M2460 3926 c0 -9 5 -16 10 -16 6 0 10 4 10 9 0 6 -4 13 -10 16 -5 3
-10 -1 -10 -9z"/>
<path d="M2341 3883 c0 -5 4 -17 9 -28 8 -18 9 -17 9 8 1 15 -3 27 -9 27 -5 0
-10 -3 -9 -7z"/>
<path d="M2625 3826 c7 -35 34 -76 48 -76 7 0 7 4 -1 12 -7 7 -12 19 -12 28 0
8 -10 26 -21 40 l-21 25 7 -29z"/>
<path d="M2362 3800 c0 -14 2 -19 5 -12 2 6 2 18 0 25 -3 6 -5 1 -5 -13z"/>
<path d="M2500 3775 c4 -25 11 -49 15 -53 5 -4 5 1 2 11 -4 10 -7 34 -7 53 0
19 -4 34 -8 34 -5 0 -6 -20 -2 -45z"/>
<path d="M2431 3764 c0 -11 3 -14 6 -6 3 7 2 16 -1 19 -3 4 -6 -2 -5 -13z"/>
<path d="M2372 3730 c0 -14 2 -19 5 -12 2 6 2 18 0 25 -3 6 -5 1 -5 -13z"/>
<path d="M2697 3739 c7 -7 15 -10 18 -7 3 3 -2 9 -12 12 -14 6 -15 5 -6 -5z"/>
<path d="M3050 3742 c0 -7 4 -12 8 -12 5 0 14 -10 20 -22 7 -16 11 -18 11 -7
1 9 -8 24 -19 34 -11 10 -20 13 -20 7z"/>
<path d="M3106 3667 c3 -10 9 -15 12 -12 3 3 0 11 -7 18 -10 9 -11 8 -5 -6z"/>
<path d="M2100 3621 c0 -14 58 -121 66 -121 15 0 -1 44 -31 86 -19 27 -35 43
-35 35z"/>
<path d="M2251 3594 c0 -11 3 -14 6 -6 3 7 2 16 -1 19 -3 4 -6 -2 -5 -13z"/>
<path d="M2214 3490 c6 -34 -15 -42 -34 -12 -10 15 -11 15 -5 -3 4 -11 11 -32
15 -47 5 -15 12 -33 17 -40 4 -7 13 -33 19 -58 7 -28 12 -36 13 -21 1 15 6 21
15 18 11 -4 10 6 -5 49 -11 30 -17 65 -13 78 7 29 -3 66 -18 66 -6 0 -8 -12
-4 -30z"/>
<path d="M2261 3482 c-2 -44 30 -130 68 -189 41 -63 97 -123 114 -123 10 0 4
8 -61 79 -37 39 -102 164 -103 196 0 11 -4 29 -9 40 -8 19 -9 19 -9 -3z"/>
<path d="M2620 3423 c0 -5 7 -18 15 -29 13 -18 14 -18 8 4 -5 22 -23 41 -23
25z"/>
<path d="M2083 3343 c11 -74 19 -103 29 -103 6 0 8 13 4 33 -4 17 -9 49 -13
70 -3 20 -10 37 -15 37 -6 0 -8 -16 -5 -37z"/>
<path d="M2950 3280 c0 -5 -6 -7 -13 -4 -8 3 -13 -4 -14 -18 0 -13 1 -17 4
-10 4 10 8 10 19 1 11 -9 14 -7 14 15 0 14 -2 26 -5 26 -3 0 -5 -4 -5 -10z"/>
<path d="M2250 3263 c0 -15 41 -85 46 -80 3 2 -7 24 -21 48 -13 24 -25 39 -25
32z"/>
<path d="M2310 3238 c0 -9 5 -20 10 -23 13 -8 13 5 0 25 -8 13 -10 13 -10 -2z"/>
<path d="M2122 3185 c0 -16 2 -22 5 -12 2 9 2 23 0 30 -3 6 -5 -1 -5 -18z"/>
<path d="M2010 3136 c0 -3 15 -49 33 -103 l32 -98 3 49 c2 27 -1 52 -6 55 -4
3 -17 27 -28 53 -10 27 -22 48 -26 48 -5 0 -8 -2 -8 -4z"/>
<path d="M2737 3133 c-4 -3 -7 -13 -7 -22 1 -13 3 -13 11 2 11 19 8 33 -4 20z"/>
<path d="M2578 3033 c7 -3 16 -2 19 1 4 3 -2 6 -13 5 -11 0 -14 -3 -6 -6z"/>
<path d="M2112 2909 c10 -21 18 -44 18 -51 0 -15 39 -82 45 -77 7 8 -21 98
-36 116 -9 10 -15 23 -12 29 2 6 -5 14 -15 16 -18 5 -18 4 0 -33z"/>
<path d="M2150 2641 c0 -5 17 -21 38 -37 111 -84 164 -179 191 -344 16 -100
18 -107 26 -98 3 3 -2 49 -10 102 -9 53 -13 100 -11 105 3 4 -4 25 -14 47 -24
47 -21 67 6 35 36 -44 74 -82 74 -73 0 23 -66 90 -173 177 -66 52 -121 95
-123 95 -2 0 -4 -4 -4 -9z"/>
<path d="M2346 2175 c4 -27 10 -57 15 -65 15 -26 10 31 -6 75 l-15 40 6 -50z"/>
<path d="M2789 2072 c-8 -9 -26 -26 -39 -38 -14 -11 -38 -35 -55 -54 -16 -19
2 -7 40 27 39 33 79 65 90 71 20 11 20 11 0 12 -11 0 -27 -8 -36 -18z"/>
<path d="M2640 1899 c0 -5 5 -7 10 -4 6 3 10 8 10 11 0 2 -4 4 -10 4 -5 0 -10
-5 -10 -11z"/>
</g>
</svg>
